<svg width="153" height="64" viewBox="0 0 153 64" fill="none" xmlns="http://www.w3.org/2000/svg">
<path d="M92.9193 17.4348C92.8912 12.9753 91.3577 9.05027 88.3894 5.75834C85.8009 2.87439 82.5652 1.04554 78.7246 0.328069C73.7023 -0.614491 69.1302 0.496886 64.952 3.36677C64.5862 3.61999 64.53 3.78881 64.8254 4.14051C65.36 4.75951 65.8523 5.40664 66.3447 6.06784C66.5698 6.37734 66.7386 6.44768 67.0763 6.18038C69.4116 4.37967 72.0845 3.52152 74.9966 3.43711C77.5288 3.36677 79.9345 3.9717 82.1432 5.22375C85.7446 7.24955 88.108 10.2742 89.0506 14.2977C90.162 19.0808 89.0506 23.3715 85.7868 27.0714C85.2522 27.6764 84.6191 28.1547 84.0283 28.6893C83.0435 29.4067 82.0165 30.0398 80.9052 30.5181C80.3425 30.7573 79.7657 30.9542 79.1748 31.109C73.435 32.5299 68.5816 31.0246 64.6284 26.6213C64.3471 26.2977 64.1923 26.2133 63.8406 26.5228C63.1794 27.0996 62.476 27.606 61.7867 28.1266C61.5757 28.2813 61.4913 28.3798 61.7023 28.633C64.333 31.8124 67.6671 33.8523 71.7047 34.7526C72.6613 34.9636 73.6461 35.1324 74.6027 35.1747C76.0939 35.2309 77.571 35.0762 79.0482 34.7667C80.6801 34.429 82.2276 33.8382 83.6907 33.0644L90.2886 39.1137L92.6239 36.5674L86.6168 31.0668C87.8407 30.0679 88.8818 28.9144 89.7821 27.6201C91.8923 24.5673 92.9896 21.1629 92.9615 17.4489" fill="#7F2E8C"/>
<path d="M65.4441 25.2568C66.4429 24.4972 67.4417 23.7234 68.4265 22.9356C68.6516 22.7527 68.7641 22.7105 68.9892 22.9778C70.8462 25.1162 73.2237 26.0587 76.0373 25.8758C77.0643 25.8055 78.0631 25.5382 78.9916 25.0318C78.865 24.8629 78.7103 24.9051 78.5836 24.8911C77.613 24.7645 76.6563 24.6378 75.6856 24.5394C75.4043 24.5112 75.2214 24.3987 75.0526 24.1736L71.6762 19.925C71.4652 19.6578 71.2964 19.5311 70.9306 19.5733C70.2413 19.6578 69.6223 19.2357 69.4113 18.6167C69.2143 18.0399 69.4113 17.3365 69.8896 16.9567C70.396 16.5487 71.1135 16.5206 71.6481 16.8723C72.2249 17.2521 72.4922 17.9133 72.239 18.5604C72.0842 18.9403 72.2108 19.1513 72.4218 19.4186L75.9107 23.7938L79.3855 24.1595L73.3503 16.4221C73.1393 16.1548 72.9705 16.0282 72.6047 16.0704C71.9154 16.1548 71.2964 15.7328 71.0854 15.1138C70.8884 14.537 71.0854 13.8336 71.5637 13.4537C72.0701 13.0458 72.7876 13.0176 73.3222 13.3693C73.899 13.7492 74.1663 14.4104 73.9131 15.0575C73.7583 15.4373 73.8849 15.6484 74.0959 15.9156L80.4688 24.0892C81.0174 23.7516 81.4957 23.3014 81.8896 22.809C82.3117 22.2885 82.2976 22.0915 81.8896 21.6273C81.1159 20.7832 80.4547 19.8547 79.7654 18.9543C79.5543 18.673 79.3574 18.5745 79.0057 18.6167C78.1475 18.7293 77.3738 17.9414 77.4582 17.0833C77.5145 16.5206 77.8099 16.0845 78.3445 15.8734C78.9353 15.6343 79.4699 15.7328 79.9483 16.1829C80.3984 16.605 80.4406 17.1255 80.2859 17.6882C80.2437 17.8711 80.0749 18.0399 80.2437 18.2509C81.0174 19.2216 81.7912 20.1923 82.5649 21.163C82.7337 21.3741 82.8041 21.3319 82.9588 21.1068C83.4512 20.4034 83.5215 19.6015 83.6341 18.7996C84.3375 14.0165 80.9893 9.6835 76.2061 9.21925C74.1522 9.0223 72.253 9.47248 70.5789 10.7245C70.3679 10.8793 70.2132 11.02 70.0021 10.7245C69.2143 9.69757 68.4265 8.68467 67.6106 7.67177C67.4417 7.46074 67.4558 7.3482 67.6809 7.19345C68.2858 6.74327 68.947 6.39157 69.6082 6.05394C72.4218 4.6612 75.348 4.3517 78.4008 5.05511C81.341 5.73037 83.7326 7.27786 85.5473 9.65536C87.9952 12.8207 88.783 16.394 87.9389 20.3049C87.2918 23.3717 85.6599 25.8477 83.2402 27.8032C80.8064 29.6742 78.0631 30.5886 75.0104 30.4902C71.1276 30.3635 67.9201 28.7739 65.3878 25.8055C65.1909 25.5663 65.2331 25.4679 65.4582 25.299" fill="#322159"/>
<path d="M97.3231 38.0309L108.043 9.93694H115.372L126.12 38.0309H119.41L117.37 32.3192H105.848L103.851 38.0309H97.3231ZM111.616 16.1691L107.607 27.4657H115.668L111.616 16.1691Z" fill="#7F2E8C"/>
<path d="M136.714 38.0309V14.917H127.556V9.93694H152.203V14.917H143.045V38.0309H136.714Z" fill="#7F2E8C"/>
<path d="M48.352 38.0309L46.3543 32.3192H34.8326L32.7927 38.0309H26.0822L36.8302 9.93694H44.1597L54.8795 38.0309H48.352ZM36.5348 27.4657H44.5958L40.5864 16.1691L36.5348 27.4657Z" fill="#7F2E8C"/>
<path d="M9.15831 38.0309V14.917H0V9.93694H24.6472V14.917H15.4889V38.0309H9.15831Z" fill="#7F2E8C"/>
<path d="M44.5676 62.5369C44.3848 62.7339 44.1737 62.973 43.9908 63.2403C44.2863 63.4795 44.5536 63.7186 44.849 64C45.06 63.8031 45.2007 63.6202 45.4117 63.3247C45.1304 63.0152 44.8771 62.7761 44.5676 62.5369Z" fill="#7F2E8C"/>
<path d="M45.9882 62.4394C45.8053 62.6363 45.5943 62.8755 45.4114 63.1428C45.7068 63.3819 45.9741 63.6211 46.2695 63.9025C46.4806 63.7055 46.6212 63.5226 46.8323 63.2272C46.5509 62.9177 46.2977 62.6785 45.9882 62.4394Z" fill="#7F2E8C"/>
<path d="M53.6413 58.2466L53.0083 58.2325C52.544 58.2325 52.1079 58.1341 51.7562 57.9934C50.5885 57.5291 49.8429 57.3603 49.3506 57.3603C48.4643 57.3603 47.8171 57.8668 47.7609 58.6827L48.1266 59.6534H48.197L48.4221 58.9922L48.3377 58.6264C48.5487 58.3873 48.8582 58.2607 49.2661 58.2607C49.9414 58.2607 50.7152 58.4576 51.5733 58.7812V58.8093C50.054 59.7238 48.83 60.1458 47.6483 60.1458H47.0715C46.6776 60.1458 46.3963 60.0473 46.1571 59.8504C45.9742 59.7097 45.9179 59.4987 45.9179 59.2454C45.9179 59.0907 45.9742 58.7671 46.0727 58.3873L46.0305 58.331L45.524 58.6968L45.313 59.4846C45.2005 59.9066 44.6096 60.1317 44.0469 60.1317H37.8992C37.8007 60.1317 37.6178 60.1177 37.4349 60.0473C37.1535 59.9488 36.8863 59.7378 36.8863 59.2595V58.8375C36.8863 57.0227 36.8863 55.1235 36.7737 53.5197L36.7174 53.4916C36.5064 53.6604 36.2813 53.8996 36.0281 54.1809C36.1407 55.7425 36.2251 57.2056 36.2251 58.5983C36.2251 59.6815 36.2251 60.2021 36.6752 60.6522C36.9707 60.9477 37.3505 61.0743 37.9273 61.0743H44.0188C44.6518 61.0743 45.2286 60.8211 45.4818 60.3287H45.51C45.7632 60.8773 46.2978 61.0743 47.0293 61.0743H47.5358C48.7316 61.0743 49.7445 60.7367 50.7574 60.0895L51.9813 59.2876C52.2204 59.1329 52.6425 59.0063 53.2193 59.0063L53.6695 58.2466H53.6413Z" fill="#7F2E8C"/>
<path d="M49.2664 62.9034C49.5618 63.1566 49.8432 63.3817 50.1386 63.663C50.3918 63.452 50.5888 63.2129 50.7435 62.9456C50.4622 62.6501 50.1667 62.3828 49.8572 62.1577C49.6603 62.3828 49.4633 62.6361 49.2664 62.9034Z" fill="#7F2E8C"/>
<path d="M56.2578 55.222C55.878 54.5889 55.6529 54.0121 55.667 53.5338L55.6107 53.4916C55.456 53.6323 55.3153 53.773 55.2027 53.8996C55.0621 54.0543 54.9776 54.2231 54.9776 54.392C54.9776 54.6592 55.0199 54.9687 55.048 55.3064C55.1605 56.6569 55.2449 57.9512 55.259 59.1188C55.259 59.4987 55.1324 59.766 54.8651 59.9066C54.5556 60.0755 54.2742 60.1036 54.0351 60.1036H53.6834C52.9237 60.1036 52.4173 59.8785 52.3891 59.2454H52.361L52.0937 59.4143C52.0796 59.5549 52.0656 59.6815 52.0656 59.8222C52.0656 60.7085 52.6986 61.0321 53.6412 61.0321H53.9788C54.2602 61.0321 54.6119 60.9617 54.8932 60.807C55.2309 60.6382 55.4138 60.3287 55.5685 59.9488C55.7795 59.5127 55.8639 58.8937 55.8639 58.1059C55.8639 57.3181 55.7936 56.4037 55.7655 55.5596C55.9483 55.433 56.1031 55.3064 56.2297 55.1798" fill="#7F2E8C"/>
<path d="M66.4574 56.4734C66.1761 56.178 65.8806 55.9107 65.5711 55.6856C65.3742 55.9107 65.1772 56.1639 64.9803 56.4312C65.2757 56.6844 65.5571 56.9095 65.8525 57.1909C66.1057 56.9799 66.3027 56.7407 66.4574 56.4734Z" fill="#7F2E8C"/>
<path d="M76.0517 56.5586C75.7703 56.2491 75.5171 56.0099 75.2076 55.7708C75.0247 55.9677 74.8137 56.2069 74.6308 56.4742C74.9262 56.7134 75.1935 56.9525 75.4889 57.2339C75.7 57.0369 75.8406 56.854 76.0517 56.5586Z" fill="#7F2E8C"/>
<path d="M74.6311 56.6561C74.3497 56.3466 74.0965 56.1075 73.787 55.8683C73.6041 56.0653 73.3931 56.3044 73.2102 56.5717C73.5057 56.8109 73.773 57.05 74.0684 57.3314C74.2794 57.1345 74.4201 56.9516 74.6311 56.6561Z" fill="#7F2E8C"/>
<path d="M81.341 53.5337L81.2848 53.4915C81.13 53.6322 80.9893 53.7729 80.8768 53.8995C80.7361 54.0683 80.6517 54.2371 80.6517 54.3918C80.6517 54.6591 80.6939 54.9686 80.7221 55.3063C80.8346 56.6568 80.919 57.9511 80.9331 59.1187C80.9331 59.4986 80.8065 59.7658 80.5392 59.9065C80.2297 60.0753 79.9483 60.1035 79.7232 60.1035H79.47C78.6118 60.1035 78.3868 59.597 78.3868 59.2594C78.3868 57.0085 78.3868 55.2078 78.2461 53.4774H78.2039L77.5427 54.1245L77.5708 54.4903C77.6833 56.1785 77.7678 57.5009 77.7678 58.978C77.7678 59.4986 77.6411 59.7377 77.4161 59.8643C77.191 59.9909 76.8674 60.0894 76.5579 60.0894H76.2766C75.8826 60.0894 75.6013 59.9909 75.3621 59.794C75.1792 59.6533 75.123 59.4423 75.123 59.1891C75.123 59.0343 75.1792 58.7107 75.2777 58.3309L75.2355 58.2746L74.7291 58.6404L74.518 59.4282C74.4055 59.8503 73.8146 60.0753 73.2519 60.0753H72.9706C72.3797 60.0753 71.9577 59.808 71.5497 59.3297C70.5508 58.1621 69.6224 57.1351 68.8345 56.4176L69.0596 56.0519C68.7501 55.9253 68.3281 55.7424 67.9342 55.4751V55.4469C68.4547 55.1797 69.2847 54.842 70.1569 54.5185C70.7619 54.2934 71.3949 54.0823 71.8451 53.9698C72.0702 53.6744 72.2531 53.3789 72.4078 53.0694L72.3797 53.0272C70.3539 53.6603 68.6235 54.2512 67.8639 54.7435C67.7654 54.8139 67.6528 54.9124 67.5966 55.0108C67.4699 55.2359 67.3996 55.4329 67.3996 55.6439C67.3996 55.7846 67.4277 55.9253 67.4559 56.0519C67.5544 56.1785 67.7232 56.3473 67.9201 56.5583C68.7079 57.3461 69.4254 58.1339 69.7349 58.7951C69.8193 58.978 69.8756 59.1468 69.8756 59.3016C69.8756 59.4001 69.6646 59.5689 69.5098 59.6674C69.0315 59.9909 68.3281 60.0894 67.7372 60.0894H67.3152C66.9213 60.0894 66.6399 59.9909 66.4008 59.794C66.2179 59.6533 66.1616 59.4423 66.1616 59.1891C66.1616 59.0343 66.2179 58.7107 66.3164 58.3309L66.2742 58.2746L65.7677 58.6404L65.5567 59.4282C65.4441 59.8503 64.8533 60.0753 64.2906 60.0753H60.5344C60.3234 58.5701 59.634 57.6134 58.9588 57.6134C58.4945 57.6134 58.1006 57.9089 57.8333 58.3168C57.6223 58.6123 57.4535 59.0062 57.4535 59.4986C57.4535 60.5255 58.2132 61.0038 59.7184 61.0038H60.0842C59.9857 61.3837 59.7466 61.6791 59.3949 62.0308C58.7618 62.6779 58.1006 63.0437 57.355 63.0437C56.9189 63.0437 56.5672 62.9312 56.2718 62.7764L56.1452 63.0156C56.8486 63.4517 57.5942 63.7612 58.2554 63.7612C58.6493 63.7612 59.4652 63.3673 60.0279 62.5091C60.3374 62.0449 60.5485 61.4681 60.5907 61.0038H64.2765C64.9096 61.0038 65.4863 60.7506 65.7396 60.2582H65.7677C66.0209 60.8069 66.5555 61.0038 67.2871 61.0038H67.6528C69.7349 61.0038 70.382 60.1457 70.382 58.9921H70.4102C70.593 59.1891 70.8181 59.4986 71.0573 59.808C71.5778 60.4974 72.0702 61.0038 72.9565 61.0038H73.2378C73.8709 61.0038 74.4477 60.7506 74.7009 60.2582H74.7291C74.9823 60.8069 75.5169 61.0038 76.2484 61.0038H76.5438C77.2613 61.0038 77.7396 60.6381 77.9647 60.2301H77.9929C78.232 60.7787 78.7385 61.0038 79.4278 61.0038H79.6951C79.9764 61.0038 80.3281 60.9335 80.6095 60.7787C80.9471 60.6099 81.13 60.3004 81.2848 59.9206C81.4958 59.4845 81.5802 58.8655 81.5802 58.0777C81.5802 57.2899 81.5099 56.3754 81.4817 55.5314C81.6646 55.4047 81.8053 55.2781 81.946 55.1515C81.5661 54.5185 81.341 53.9417 81.3551 53.4633M58.7196 60.005C58.2694 59.8784 57.9177 59.6533 57.9177 59.2735C57.9177 58.978 58.3398 58.6263 58.7477 58.6263C59.015 58.6263 59.2964 58.767 59.5215 59.0343C59.7747 59.3016 59.9576 59.6955 60.042 60.1035C59.5637 60.1035 59.1276 60.1035 58.7196 59.9909" fill="#7F2E8C"/>
<path d="M93.2708 57.0086C93.0738 57.2478 92.891 57.5291 92.7221 57.8386C93.102 58.5842 93.4537 59.3017 93.4537 59.6534C93.4537 59.6815 93.4396 59.7097 93.3833 59.7378C93.0879 59.8644 92.7503 59.9629 92.4126 60.0332C91.5967 60.2302 90.7526 60.3428 89.8945 60.3428C88.0515 60.3428 86.5885 59.7378 86.5885 58.2466C86.5885 57.923 86.6588 57.5432 86.7995 57.1352L86.5041 57.0086C86.1946 57.5995 86.0679 58.1903 86.0679 58.7812C86.0679 60.596 87.6295 61.3416 89.6694 61.3416C91.1184 61.3416 93.0035 60.8492 93.6506 60.4694C93.8616 60.1177 94.0445 59.7941 94.0445 59.2454C94.0445 58.5139 93.6506 57.5995 93.313 57.0086H93.2708Z" fill="#7F2E8C"/>
<path d="M89.9507 55.7851C89.6694 55.4756 89.4161 55.2365 89.1066 54.9973C88.9238 55.1943 88.7127 55.4334 88.5299 55.7007C88.8253 55.9399 89.0926 56.179 89.388 56.4604C89.599 56.2634 89.7397 56.0806 89.9507 55.7851Z" fill="#7F2E8C"/>
<path d="M91.3575 55.6862C91.0762 55.3767 90.8229 55.1376 90.5134 54.8984C90.3306 55.0954 90.1195 55.3345 89.9367 55.6018C90.2321 55.841 90.4994 56.0801 90.7948 56.3615C91.0058 56.1645 91.1465 55.9816 91.3575 55.6862Z" fill="#7F2E8C"/>
<path d="M104.568 54.6023C104.286 54.2928 104.033 54.0536 103.724 53.8144C103.541 54.0114 103.33 54.2506 103.147 54.5179C103.442 54.757 103.709 54.9962 104.005 55.2775C104.216 55.0806 104.357 54.8977 104.568 54.6023Z" fill="#7F2E8C"/>
<path d="M105.989 54.5047C105.707 54.1952 105.454 53.9561 105.145 53.7169C104.962 53.9139 104.751 54.153 104.568 54.4203C104.863 54.6595 105.131 54.8986 105.426 55.18C105.637 54.983 105.778 54.8002 105.989 54.5047Z" fill="#7F2E8C"/>
<path d="M105.018 55.9669C104.694 55.9669 104.357 56.1638 104.075 56.4592C103.723 56.825 103.526 57.3596 103.526 57.9083C103.526 58.1052 103.569 58.2881 103.639 58.4428C103.892 59.0056 104.553 59.2307 105.398 59.2307C105.665 59.2307 105.96 59.2307 106.228 59.2025C106.242 59.2588 106.242 59.3151 106.242 59.3573C106.242 59.5542 105.848 59.8215 105.369 59.9622C104.947 60.0888 104.399 60.1029 103.766 60.1029H97.1677C97.0693 60.1029 96.8864 60.0888 96.7035 60.0185C96.4221 59.92 96.1548 59.709 96.1548 59.2307V58.8086C96.1548 56.9938 96.1548 55.0946 96.0423 53.4909L95.986 53.4627C95.775 53.6316 95.5499 53.8707 95.2967 54.1521C95.4092 55.7136 95.4936 57.1767 95.4936 58.5695C95.4936 59.6527 95.4936 60.1732 95.9438 60.6234C96.2392 60.9188 96.6191 61.0454 97.1959 61.0454H103.752C105.06 61.0454 105.918 60.8485 106.368 60.3139C106.621 60.0185 106.734 59.6246 106.734 59.1462C106.734 58.4428 106.607 57.8801 106.425 57.4018C106.087 56.5155 105.623 55.9528 105.018 55.9528M103.977 57.5847C103.977 57.3033 104.371 56.9376 104.863 56.9376C105.454 56.9376 105.96 57.6691 106.115 58.3584C104.947 58.3584 103.991 58.1755 103.991 57.5847" fill="#7F2E8C"/>
<path d="M115.653 57.5284C115.386 57.2751 114.978 57.1204 114.556 57.1204C114.078 57.1204 113.585 57.3033 113.177 57.5565C112.685 57.866 112.108 58.3724 111.559 58.9352H111.531C111.686 58.5413 111.784 58.1192 111.784 57.4721C111.784 56.6843 111.756 55.8824 111.714 55.0946L112.192 54.7148C111.784 54.0676 111.573 53.533 111.573 53.111L111.517 53.0547C111.151 53.3361 110.94 53.5752 110.94 53.8988C110.94 54.1239 110.969 54.3912 110.983 54.6163C111.067 55.4604 111.165 56.9938 111.165 57.9926C111.165 58.7523 111.151 59.0758 111.053 59.4557L110.659 60.131H109.885C109.787 60.131 109.604 60.1169 109.421 60.0465C109.14 59.9481 108.872 59.737 108.872 59.2587V58.8367C108.872 57.0219 108.872 55.1227 108.76 53.519L108.704 53.4908C108.493 53.6596 108.267 53.8988 108.014 54.1802C108.127 55.7417 108.211 57.2048 108.211 58.5975C108.211 59.6808 108.211 60.2013 108.661 60.6515C108.957 60.9469 109.337 61.0735 109.913 61.0735H111.644C113.093 61.0735 115.667 60.8906 116.033 59.6245C116.117 59.3431 116.202 58.9914 116.202 58.8508C116.202 58.3162 115.991 57.866 115.653 57.5565M115.217 59.5682C114.443 59.9621 113.43 60.1169 111.827 60.1169H111.18C112.235 58.8648 113.29 58.0911 114.246 58.0911C115.048 58.0911 115.653 58.696 115.653 59.2165C115.569 59.3291 115.428 59.4557 115.217 59.5542" fill="#7F2E8C"/>
<path d="M19.7653 40.366H24.0561V41.2241H20.7923V43.883H23.8169V44.7271H20.7923V48.3426H19.7653V40.366Z" fill="#231F20"/>
<path d="M33.2708 45.4302C33.2708 47.5544 31.8078 48.4689 30.415 48.4689C28.8675 48.4689 27.6718 47.3293 27.6718 45.5286C27.6718 43.6154 28.9238 42.4899 30.5135 42.4899C32.1032 42.4899 33.2708 43.6857 33.2708 45.4302ZM28.7269 45.4864C28.7269 46.7385 29.4443 47.6811 30.4713 47.6811C31.4983 47.6811 32.2157 46.7526 32.2157 45.4583C32.2157 44.4876 31.7374 43.2637 30.4994 43.2637C29.2615 43.2637 28.7409 44.4032 28.7409 45.4864" fill="#231F20"/>
<path d="M37.5472 44.4032C37.5472 43.7279 37.5472 43.1511 37.505 42.6166H38.4194L38.4616 43.742H38.5038C38.7711 42.9683 39.3901 42.4899 40.0935 42.4899C40.206 42.4899 40.2905 42.4899 40.3889 42.5321V43.5169C40.2764 43.4888 40.1779 43.4747 40.0372 43.4747C39.3057 43.4747 38.7852 44.0374 38.6445 44.8112C38.6164 44.9519 38.6023 45.1207 38.6023 45.3036V48.3563H37.5753V44.4173L37.5472 44.4032Z" fill="#231F20"/>
<path d="M50.9123 41.2382H48.4785V40.366H54.3871V41.2382H51.9533V48.3426H50.9123V41.2382Z" fill="#231F20"/>
<path d="M57.9319 45.6697C57.96 47.0765 58.8604 47.6532 59.9014 47.6532C60.647 47.6532 61.0972 47.5266 61.4911 47.3578L61.674 48.1034C61.3082 48.2722 60.6752 48.4551 59.7748 48.4551C58.0163 48.4551 56.9612 47.3015 56.9612 45.5712C56.9612 43.8408 57.9741 42.4762 59.6482 42.4762C61.5193 42.4762 62.0116 44.1222 62.0116 45.1773C62.0116 45.3883 61.9835 45.5571 61.9835 45.6556H57.96L57.9319 45.6697ZM60.9847 44.924C60.9847 44.2628 60.7174 43.2359 59.5357 43.2359C58.4806 43.2359 58.0163 44.2066 57.9319 44.924H60.9847Z" fill="#231F20"/>
<path d="M70.3263 48.1323C70.059 48.273 69.4541 48.4699 68.6803 48.4699C66.9499 48.4699 65.8245 47.3023 65.8245 45.5438C65.8245 43.7852 67.0344 42.5051 68.9054 42.5051C69.5244 42.5051 70.059 42.6598 70.3544 42.8005L70.1153 43.6024C69.862 43.4617 69.4822 43.3351 68.9054 43.3351C67.5971 43.3351 66.8796 44.3058 66.8796 45.5015C66.8796 46.8239 67.7378 47.6399 68.8632 47.6399C69.4541 47.6399 69.848 47.4851 70.1434 47.3585L70.3263 48.1463V48.1323Z" fill="#231F20"/>
<path d="M74.5044 39.9442H75.5454V43.5175H75.5736C75.7424 43.2221 75.9956 42.9548 76.3192 42.786C76.6287 42.6031 76.9944 42.4905 77.3883 42.4905C78.1621 42.4905 79.386 42.9689 79.386 44.9384V48.3429H78.345V45.0509C78.345 44.1224 78.0073 43.3487 77.0226 43.3487C76.3473 43.3487 75.8127 43.827 75.6298 44.3897C75.5736 44.5304 75.5595 44.6852 75.5595 44.8821V48.3429H74.5185V39.9442H74.5044Z" fill="#231F20"/>
<path d="M84.0425 44.1644C84.0425 43.5735 84.0425 43.0811 84.0003 42.6169H84.9288L84.9851 43.5594H85.0132C85.2946 43.0108 85.9558 42.4762 86.9124 42.4762C87.7002 42.4762 88.9382 42.9545 88.9382 44.91V48.3285H87.8972V45.0225C87.8972 44.094 87.5595 43.3344 86.5748 43.3344C85.8854 43.3344 85.3509 43.8127 85.182 44.4035C85.1398 44.5301 85.1117 44.713 85.1117 44.8818V48.3285H84.0707V44.1503L84.0425 44.1644Z" fill="#231F20"/>
<path d="M98.7437 45.4302C98.7437 47.5544 97.2806 48.4689 95.8878 48.4689C94.3404 48.4689 93.1446 47.3293 93.1446 45.5286C93.1446 43.6154 94.3966 42.4899 95.9863 42.4899C97.576 42.4899 98.7437 43.6857 98.7437 45.4302ZM94.1997 45.4864C94.1997 46.7385 94.9171 47.6811 95.9441 47.6811C96.9711 47.6811 97.6886 46.7526 97.6886 45.4583C97.6886 44.4876 97.2102 43.2637 95.9722 43.2637C94.7343 43.2637 94.2137 44.4032 94.2137 45.4864" fill="#231F20"/>
<path d="M104.061 39.9442H103.02V48.3429H104.061V39.9442Z" fill="#231F20"/>
<path d="M113.951 45.4302C113.951 47.5544 112.488 48.4689 111.095 48.4689C109.548 48.4689 108.352 47.3293 108.352 45.5286C108.352 43.6154 109.604 42.4899 111.194 42.4899C112.784 42.4899 113.951 43.6857 113.951 45.4302ZM109.421 45.4864C109.421 46.7385 110.139 47.6811 111.166 47.6811C112.193 47.6811 112.91 46.7526 112.91 45.4583C112.91 44.4876 112.432 43.2637 111.194 43.2637C109.956 43.2637 109.435 44.4032 109.435 45.4864" fill="#231F20"/>
<path d="M123.166 42.6166C123.138 43.0245 123.124 43.4888 123.124 44.1922V47.5122C123.124 48.8206 122.856 49.6365 122.308 50.1289C121.745 50.6494 120.943 50.8182 120.226 50.8182C119.508 50.8182 118.777 50.6494 118.326 50.3399L118.594 49.5521C118.974 49.7913 119.564 50.0023 120.268 50.0023C121.337 50.0023 122.111 49.4396 122.111 48.0046V47.3716H122.083C121.759 47.9061 121.154 48.3282 120.254 48.3282C118.833 48.3282 117.82 47.1183 117.82 45.5286C117.82 43.5872 119.086 42.4899 120.394 42.4899C121.393 42.4899 121.928 43.0105 122.181 43.4888H122.209L122.251 42.6306H123.166V42.6166ZM122.097 44.8674C122.097 44.6846 122.097 44.5298 122.04 44.3891C121.858 43.7842 121.337 43.2918 120.591 43.2918C119.593 43.2918 118.889 44.1359 118.889 45.4583C118.889 46.5837 119.452 47.5122 120.577 47.5122C121.21 47.5122 121.801 47.1043 122.026 46.4431C122.083 46.2602 122.111 46.0632 122.111 45.8803V44.8534L122.097 44.8674Z" fill="#231F20"/>
<path d="M128.188 42.6177L129.44 46.0081C129.567 46.3879 129.707 46.8381 129.806 47.1758H129.834C129.946 46.8381 130.059 46.402 130.2 45.98L131.339 42.6177H132.436L130.875 46.6974C130.129 48.667 129.623 49.6658 128.905 50.2848C128.399 50.735 127.892 50.9179 127.625 50.9601L127.358 50.0878C127.625 50.0034 127.963 49.8346 128.272 49.5814C128.554 49.3563 128.905 48.9483 129.145 48.4278C129.187 48.3153 129.229 48.2449 129.229 48.1746C129.229 48.1042 129.201 48.0339 129.159 47.9073L127.034 42.6318H128.174L128.188 42.6177Z" fill="#231F20"/>
</svg>
