<svg width="172" height="73" viewBox="0 0 172 73" fill="none" xmlns="http://www.w3.org/2000/svg">
<path d="M105.034 20.0927C105.003 15.0757 103.277 10.6601 99.9381 6.95665C97.026 3.7122 93.3859 1.65475 89.0652 0.847593C83.4151 -0.212787 78.2715 1.03751 73.571 4.26613C73.1595 4.55101 73.0962 4.74093 73.4286 5.13659C74.03 5.83296 74.5839 6.56098 75.1378 7.30483C75.3911 7.65302 75.581 7.73215 75.9608 7.43145C78.588 5.40565 81.5951 4.44022 84.8712 4.34526C87.72 4.26613 90.4263 4.94667 92.9111 6.35524C96.9627 8.63426 99.6215 12.037 100.682 16.5634C101.932 21.9444 100.682 26.7715 97.0101 30.9339C96.4087 31.6144 95.6965 32.1525 95.0318 32.754C93.924 33.5611 92.7686 34.2733 91.5183 34.8114C90.8853 35.0805 90.2364 35.302 89.5717 35.4761C83.1144 37.0746 77.6543 35.3812 73.207 30.4274C72.8905 30.0634 72.7164 29.9685 72.3207 30.3167C71.5769 30.9656 70.7855 31.5353 70.01 32.1209C69.7726 32.295 69.6777 32.4058 69.9151 32.6906C72.8746 36.2675 76.6255 38.5623 81.1677 39.5752C82.244 39.8126 83.3518 40.0025 84.428 40.05C86.1056 40.1133 87.7674 39.9392 89.4292 39.591C91.2651 39.2112 93.006 38.5465 94.652 37.676L102.075 44.4814L104.702 41.6168L97.9439 35.4286C99.3208 34.305 100.492 33.0072 101.505 31.5511C103.879 28.1168 105.113 24.2867 105.082 20.1085" fill="#F9F5F9"/>
<path d="M74.1246 28.8925C75.2483 28.0378 76.372 27.1674 77.4798 26.2811C77.7331 26.0753 77.8597 26.0279 78.1129 26.3286C80.202 28.7342 82.8767 29.7946 86.042 29.5888C87.1973 29.5097 88.321 29.209 89.3656 28.6392C89.2231 28.4493 89.049 28.4968 88.9066 28.481C87.8146 28.3385 86.7384 28.1961 85.6463 28.0853C85.3298 28.0537 85.1241 27.927 84.9341 27.6738L81.1358 22.8942C80.8984 22.5935 80.7084 22.451 80.297 22.4985C79.5214 22.5935 78.8251 22.1187 78.5877 21.4223C78.3661 20.7734 78.5877 19.9821 79.1258 19.5548C79.6955 19.0958 80.5027 19.0642 81.1041 19.4598C81.753 19.8871 82.0537 20.631 81.7688 21.359C81.5947 21.7863 81.7372 22.0237 81.9746 22.3244L85.8996 27.2465L89.8087 27.658L83.0191 18.9534C82.7817 18.6527 82.5918 18.5102 82.1803 18.5577C81.4048 18.6527 80.7084 18.1779 80.471 17.4815C80.2495 16.8326 80.471 16.0413 81.0091 15.614C81.5789 15.155 82.3861 15.1233 82.9875 15.519C83.6364 15.9463 83.9371 16.6902 83.6522 17.4182C83.4781 17.8455 83.6205 18.0829 83.8579 18.3836L91.0274 27.5789C91.6446 27.199 92.1827 26.6926 92.6258 26.1386C93.1006 25.5531 93.0848 25.3315 92.6258 24.8092C91.7554 23.8596 91.0115 22.8151 90.236 21.8022C89.9986 21.4856 89.7771 21.3748 89.3814 21.4223C88.416 21.5489 87.5455 20.6626 87.6405 19.6972C87.7038 19.0642 88.0361 18.5735 88.6376 18.3361C89.3023 18.0671 89.9037 18.1779 90.4418 18.6843C90.9482 19.1591 90.9957 19.7447 90.8216 20.3778C90.7741 20.5835 90.5842 20.7734 90.7741 21.0108C91.6446 22.1029 92.5151 23.1949 93.3855 24.2869C93.5754 24.5243 93.6546 24.4768 93.8287 24.2236C94.3826 23.4323 94.4617 22.5302 94.5883 21.6281C95.3797 16.247 91.613 11.3725 86.2319 10.8502C83.9212 10.6286 81.7847 11.1351 79.9013 12.5436C79.6639 12.7177 79.4898 12.876 79.2524 12.5436C78.3661 11.3883 77.4798 10.2488 76.5619 9.10925C76.372 8.87185 76.3878 8.74524 76.641 8.57115C77.3216 8.0647 78.0654 7.66903 78.8093 7.2892C81.9746 5.72237 85.2665 5.37418 88.7009 6.16551C92.0086 6.92519 94.6991 8.66611 96.7408 11.3408C99.4946 14.9018 100.381 18.9217 99.4313 23.3215C98.7033 26.7717 96.8674 29.5572 94.1452 31.7571C91.4072 33.862 88.321 34.8907 84.8867 34.7799C80.5185 34.6375 76.9101 32.8491 74.0613 29.5097C73.8397 29.2406 73.8872 29.1299 74.1404 28.9399" fill="#F9F5F9"/>
<path d="M109.988 43.2632L122.048 11.6576H130.294L142.385 43.2632H134.836L132.541 36.8376H119.579L117.332 43.2632H109.988ZM126.068 18.6687L121.558 31.3775H130.626L126.068 18.6687Z" fill="#F9F5F9"/>
<path d="M154.303 43.2632V17.2602H144V11.6576H171.728V17.2602H161.425V43.2632H154.303Z" fill="#F9F5F9"/>
<path d="M54.896 43.2632L52.6486 36.8376H39.6866L37.3918 43.2632H29.8425L41.934 11.6576H50.1796L62.2395 43.2632H54.896ZM41.6017 31.3775H50.6703L46.1597 18.6687L41.6017 31.3775Z" fill="#F9F5F9"/>
<path d="M10.8031 43.2632V17.2602H0.5V11.6576H28.2281V17.2602H17.925V43.2632H10.8031Z" fill="#F9F5F9"/>
<path d="M50.6386 70.8326C50.4328 71.0541 50.1954 71.3232 49.9897 71.6239C50.3221 71.8929 50.6228 72.162 50.9551 72.4785C51.1925 72.2569 51.3508 72.0512 51.5882 71.7188C51.2717 71.3707 50.9868 71.1016 50.6386 70.8326Z" fill="#F9F5F9"/>
<path d="M52.2367 70.7228C52.031 70.9444 51.7936 71.2134 51.5878 71.5141C51.9202 71.7832 52.2209 72.0523 52.5532 72.3688C52.7906 72.1472 52.9489 71.9415 53.1863 71.6091C52.8698 71.2609 52.5849 70.9919 52.2367 70.7228Z" fill="#F9F5F9"/>
<path d="M60.8465 66.0059L60.1343 65.9901C59.612 65.9901 59.1214 65.8793 58.7257 65.7211C57.4121 65.1988 56.5733 65.0089 56.0194 65.0089C55.0223 65.0089 54.2943 65.5786 54.231 66.4966L54.6425 67.5886H54.7216L54.9748 66.8447L54.8799 66.4333C55.1173 66.1642 55.4655 66.0218 55.9244 66.0218C56.6841 66.0218 57.5546 66.2433 58.52 66.6074V66.639C56.8107 67.6677 55.4338 68.1425 54.1044 68.1425H53.4555C53.0123 68.1425 52.6958 68.0317 52.4268 67.8102C52.221 67.6519 52.1577 67.4145 52.1577 67.1296C52.1577 66.9555 52.221 66.5915 52.3318 66.1642L52.2843 66.1009L51.7146 66.5124L51.4771 67.3987C51.3505 67.8735 50.6858 68.1267 50.0528 68.1267H43.1366C43.0258 68.1267 42.82 68.1109 42.6143 68.0317C42.2977 67.921 41.997 67.6836 41.997 67.1455V66.6707C41.997 64.629 41.997 62.4925 41.8704 60.6882L41.8071 60.6566C41.5697 60.8465 41.3165 61.1155 41.0316 61.4321C41.1582 63.1888 41.2532 64.8348 41.2532 66.4016C41.2532 67.6203 41.2532 68.2058 41.7596 68.7123C42.092 69.0446 42.5193 69.1871 43.1682 69.1871H50.0211C50.7333 69.1871 51.3822 68.9022 51.6671 68.3483H51.6987C51.9836 68.9655 52.585 69.1871 53.408 69.1871H53.9778C55.323 69.1871 56.4625 68.8073 57.602 68.0792L58.9789 67.1771C59.248 67.003 59.7228 66.8606 60.3717 66.8606L60.8781 66.0059H60.8465Z" fill="#F9F5F9"/>
<path d="M55.9247 71.2448C56.257 71.5297 56.5736 71.7829 56.9059 72.0994C57.1908 71.862 57.4124 71.593 57.5865 71.2923C57.2699 70.9599 56.9376 70.6592 56.5894 70.406C56.3678 70.6592 56.1462 70.9441 55.9247 71.2448Z" fill="#F9F5F9"/>
<path d="M63.7901 62.6032C63.3628 61.891 63.1095 61.2422 63.1254 60.704L63.062 60.6566C62.888 60.8148 62.7297 60.9731 62.6031 61.1155C62.4448 61.2896 62.3499 61.4795 62.3499 61.6695C62.3499 61.9702 62.3973 62.3184 62.429 62.6982C62.5556 64.2175 62.6506 65.6736 62.6664 66.9872C62.6664 67.4145 62.5239 67.7152 62.2232 67.8735C61.8751 68.0634 61.5585 68.0951 61.2895 68.0951H60.8938C60.0392 68.0951 59.4694 67.8418 59.4378 67.1296H59.4061L59.1054 67.3196C59.0896 67.4778 59.0737 67.6203 59.0737 67.7785C59.0737 68.7756 59.7859 69.1396 60.8463 69.1396H61.2262C61.5427 69.1396 61.9384 69.0605 62.2549 68.8864C62.6347 68.6965 62.8405 68.3483 63.0146 67.921C63.252 67.4303 63.3469 66.734 63.3469 65.8477C63.3469 64.9614 63.2678 63.9327 63.2361 62.9831C63.4419 62.8406 63.616 62.6982 63.7584 62.5558" fill="#F9F5F9"/>
<path d="M75.2646 64.0111C74.9481 63.6788 74.6157 63.3781 74.2675 63.1248C74.046 63.3781 73.8244 63.6629 73.6028 63.9636C73.9352 64.2485 74.2517 64.5017 74.5841 64.8183C74.8689 64.5809 75.0905 64.3118 75.2646 64.0111Z" fill="#F9F5F9"/>
<path d="M86.0581 64.1069C85.7416 63.7588 85.4567 63.4897 85.1085 63.2207C84.9028 63.4422 84.6654 63.7113 84.4596 64.012C84.792 64.281 85.0927 64.5501 85.425 64.8666C85.6624 64.645 85.8207 64.4393 86.0581 64.1069Z" fill="#F9F5F9"/>
<path d="M84.46 64.2167C84.1435 63.8685 83.8586 63.5994 83.5104 63.3304C83.3047 63.552 83.0673 63.821 82.8615 64.1217C83.1939 64.3908 83.4946 64.6598 83.8269 64.9763C84.0643 64.7548 84.2226 64.549 84.46 64.2167Z" fill="#F9F5F9"/>
<path d="M92.0087 60.7039L91.9454 60.6564C91.7713 60.8147 91.613 60.973 91.4864 61.1154C91.3281 61.3053 91.2332 61.4952 91.2332 61.6693C91.2332 61.97 91.2807 62.3182 91.3123 62.6981C91.4389 64.2174 91.5339 65.6735 91.5497 66.9871C91.5497 67.4144 91.4073 67.7151 91.1066 67.8734C90.7584 68.0633 90.4418 68.0949 90.1886 68.0949H89.9037C88.9383 68.0949 88.6851 67.5252 88.6851 67.1453C88.6851 64.6131 88.6851 62.5873 88.5268 60.6406H88.4794L87.7355 61.3686L87.7672 61.7801C87.8938 63.6793 87.9887 65.167 87.9887 66.8288C87.9887 67.4144 87.8463 67.6834 87.5931 67.8259C87.3398 67.9683 86.9758 68.0791 86.6276 68.0791H86.3111C85.868 68.0791 85.5514 67.9683 85.2824 67.7467C85.0766 67.5885 85.0133 67.3511 85.0133 67.0662C85.0133 66.8921 85.0766 66.5281 85.1874 66.1008L85.14 66.0375L84.5702 66.449L84.3328 67.3353C84.2062 67.8101 83.5415 68.0633 82.9084 68.0633H82.5919C81.9272 68.0633 81.4524 67.7626 80.9934 67.2245C79.8697 65.9109 78.8251 64.7555 77.9389 63.9484L78.1921 63.5369C77.8439 63.3944 77.3691 63.1887 76.926 62.888V62.8563C77.5116 62.5556 78.4453 62.1758 79.4266 61.8118C80.1071 61.5586 80.8193 61.3212 81.3257 61.1945C81.579 60.8622 81.7847 60.5298 81.9588 60.1816L81.9272 60.1342C79.6481 60.8464 77.7015 61.5111 76.8468 62.065C76.736 62.1441 76.6094 62.2549 76.5461 62.3657C76.4037 62.6189 76.3246 62.8405 76.3246 63.0779C76.3246 63.2362 76.3562 63.3944 76.3879 63.5369C76.4986 63.6793 76.6886 63.8692 76.9101 64.1066C77.7964 64.9929 78.6036 65.8792 78.9518 66.6231C79.0467 66.8288 79.11 67.0187 79.11 67.1928C79.11 67.3036 78.8726 67.4935 78.6985 67.6043C78.1604 67.9683 77.3691 68.0791 76.7044 68.0791H76.2296C75.7864 68.0791 75.4699 67.9683 75.2009 67.7467C74.9951 67.5885 74.9318 67.3511 74.9318 67.0662C74.9318 66.8921 74.9951 66.5281 75.1059 66.1008L75.0584 66.0375L74.4887 66.449L74.2513 67.3353C74.1247 67.8101 73.4599 68.0633 72.8269 68.0633H68.6012C68.3638 66.3698 67.5883 65.2936 66.8286 65.2936C66.3063 65.2936 65.8632 65.626 65.5625 66.085C65.3251 66.4173 65.1352 66.8605 65.1352 67.4144C65.1352 68.5697 65.9898 69.1078 67.6833 69.1078H68.0947C67.9839 69.5351 67.7149 69.8675 67.3192 70.2632C66.607 70.9912 65.8632 71.4027 65.0244 71.4027C64.5338 71.4027 64.1381 71.2761 63.8057 71.102L63.6633 71.371C64.4546 71.8616 65.2934 72.2098 66.0373 72.2098C66.4804 72.2098 67.3984 71.7667 68.0314 70.8013C68.3796 70.279 68.617 69.6301 68.6645 69.1078H72.8111C73.5232 69.1078 74.1721 68.823 74.457 68.269H74.4887C74.7736 68.8863 75.375 69.1078 76.1979 69.1078H76.6094C78.9518 69.1078 79.6798 68.1424 79.6798 66.8446H79.7114C79.9172 67.0662 80.1704 67.4144 80.4395 67.7626C81.025 68.5381 81.579 69.1078 82.576 69.1078H82.8926C83.6048 69.1078 84.2537 68.823 84.5385 68.269H84.5702C84.8551 68.8863 85.4565 69.1078 86.2795 69.1078H86.6118C87.419 69.1078 87.9571 68.6963 88.2103 68.2374H88.242C88.511 68.8546 89.0808 69.1078 89.8563 69.1078H90.157C90.4735 69.1078 90.8692 69.0287 91.1857 68.8546C91.5655 68.6647 91.7713 68.3165 91.9454 67.8892C92.1828 67.3986 92.2777 66.7022 92.2777 65.8159C92.2777 64.9296 92.1986 63.9009 92.1669 62.9513C92.3727 62.8088 92.531 62.6664 92.6892 62.524C92.2619 61.8118 92.0087 61.1629 92.0245 60.6248M66.5596 67.9841C66.0531 67.8417 65.6574 67.5885 65.6574 67.1612C65.6574 66.8288 66.1322 66.4331 66.5912 66.4331C66.8919 66.4331 67.2085 66.5914 67.4617 66.8921C67.7466 67.1928 67.9523 67.636 68.0473 68.0949C67.5092 68.0949 67.0185 68.0949 66.5596 67.9683" fill="#F9F5F9"/>
<path d="M105.43 64.6132C105.208 64.8823 105.002 65.1988 104.812 65.547C105.24 66.3858 105.635 67.1929 105.635 67.5886C105.635 67.6203 105.62 67.6519 105.556 67.6836C105.224 67.826 104.844 67.9368 104.464 68.0159C103.546 68.2375 102.597 68.3641 101.631 68.3641C99.558 68.3641 97.912 67.6836 97.912 66.0059C97.912 65.6419 97.9912 65.2146 98.1494 64.7556L97.8171 64.6132C97.4689 65.2779 97.3264 65.9426 97.3264 66.6074C97.3264 68.649 99.0832 69.4878 101.378 69.4878C103.008 69.4878 105.129 68.9339 105.857 68.5065C106.094 68.1109 106.3 67.7469 106.3 67.1296C106.3 66.3066 105.857 65.2779 105.477 64.6132H105.43Z" fill="#F9F5F9"/>
<path d="M101.695 63.2368C101.378 62.8886 101.093 62.6196 100.745 62.3505C100.539 62.5721 100.302 62.8411 100.096 63.1418C100.428 63.4109 100.729 63.6799 101.062 63.9965C101.299 63.7749 101.457 63.5692 101.695 63.2368Z" fill="#F9F5F9"/>
<path d="M103.277 63.1255C102.961 62.7773 102.676 62.5083 102.328 62.2392C102.122 62.4608 101.884 62.7298 101.679 63.0306C102.011 63.2996 102.312 63.5687 102.644 63.8852C102.882 63.6636 103.04 63.4579 103.277 63.1255Z" fill="#F9F5F9"/>
<path d="M118.139 61.9061C117.822 61.5579 117.537 61.2888 117.189 61.0198C116.983 61.2413 116.746 61.5104 116.54 61.8111C116.872 62.0802 117.173 62.3492 117.506 62.6657C117.743 62.4442 117.901 62.2384 118.139 61.9061Z" fill="#F9F5F9"/>
<path d="M119.737 61.7963C119.421 61.4481 119.136 61.1791 118.788 60.91C118.582 61.1316 118.345 61.4007 118.139 61.7014C118.471 61.9704 118.772 62.2395 119.104 62.556C119.342 62.3344 119.5 62.1287 119.737 61.7963Z" fill="#F9F5F9"/>
<path d="M118.645 63.4412C118.281 63.4412 117.901 63.6628 117.585 63.9952C117.189 64.4067 116.967 65.0081 116.967 65.6253C116.967 65.8469 117.015 66.0526 117.094 66.2267C117.379 66.8598 118.123 67.113 119.072 67.113C119.373 67.113 119.705 67.113 120.006 67.0814C120.022 67.1447 120.022 67.208 120.022 67.2554C120.022 67.477 119.579 67.7777 119.041 67.936C118.566 68.0784 117.949 68.0943 117.236 68.0943H109.814C109.703 68.0943 109.497 68.0784 109.291 67.9993C108.975 67.8885 108.674 67.6511 108.674 67.113V66.6382C108.674 64.5966 108.674 62.46 108.548 60.6558L108.484 60.6241C108.247 60.814 107.994 61.0831 107.709 61.3996C107.835 63.1564 107.93 64.8023 107.93 66.3692C107.93 67.5878 107.93 68.1734 108.437 68.6798C108.769 69.0122 109.196 69.1546 109.845 69.1546H117.221C118.692 69.1546 119.658 68.9331 120.164 68.3316C120.449 67.9993 120.576 67.5561 120.576 67.018C120.576 66.2267 120.433 65.5937 120.228 65.0555C119.848 64.0585 119.325 63.4254 118.645 63.4254M117.474 65.2613C117.474 64.9448 117.917 64.5333 118.471 64.5333C119.136 64.5333 119.705 65.3563 119.879 66.1318C118.566 66.1318 117.49 65.926 117.49 65.2613" fill="#F9F5F9"/>
<path d="M130.61 65.1979C130.309 64.913 129.85 64.739 129.375 64.739C128.837 64.739 128.283 64.9447 127.824 65.2296C127.27 65.5778 126.622 66.1475 126.004 66.7806H125.973C126.147 66.3374 126.258 65.8626 126.258 65.1346C126.258 64.2483 126.226 63.3462 126.178 62.4599L126.717 62.0326C126.258 61.3046 126.02 60.7032 126.02 60.2284L125.957 60.1651C125.545 60.4816 125.308 60.7507 125.308 61.1147C125.308 61.3679 125.34 61.6686 125.355 61.9218C125.45 62.8714 125.561 64.5965 125.561 65.7202C125.561 66.5748 125.545 66.9389 125.435 67.3662L124.991 68.1258H124.121C124.01 68.1258 123.804 68.11 123.599 68.0309C123.282 67.9201 122.981 67.6827 122.981 67.1446V66.6698C122.981 64.6282 122.981 62.4916 122.855 60.6874L122.792 60.6557C122.554 60.8456 122.301 61.1147 122.016 61.4312C122.143 63.188 122.238 64.8339 122.238 66.4007C122.238 67.6194 122.238 68.205 122.744 68.7114C123.076 69.0438 123.504 69.1862 124.153 69.1862H126.099C127.729 69.1862 130.626 68.9805 131.037 67.5561C131.132 67.2396 131.227 66.8439 131.227 66.6856C131.227 66.0842 130.99 65.5778 130.61 65.2296M130.119 67.4928C129.249 67.9359 128.109 68.11 126.305 68.11H125.577C126.764 66.7015 127.951 65.831 129.027 65.831C129.929 65.831 130.61 66.5115 130.61 67.0971C130.515 67.2237 130.357 67.3662 130.119 67.477" fill="#F9F5F9"/>
<path d="M22.736 45.8903H27.5631V46.8557H23.8914V49.8469H27.2941V50.7965H23.8914V54.8639H22.736V45.8903Z" fill="#F9F5F9"/>
<path d="M37.9297 51.5874C37.9297 53.9773 36.2837 55.006 34.7169 55.006C32.976 55.006 31.6307 53.724 31.6307 51.6982C31.6307 49.5458 33.0393 48.2797 34.8277 48.2797C36.6161 48.2797 37.9297 49.625 37.9297 51.5874ZM32.8177 51.6508C32.8177 53.0593 33.6249 54.1197 34.7802 54.1197C35.9356 54.1197 36.7427 53.0751 36.7427 51.6191C36.7427 50.5271 36.2046 49.1502 34.8119 49.1502C33.4191 49.1502 32.8336 50.4321 32.8336 51.6508" fill="#F9F5F9"/>
<path d="M42.7406 50.4321C42.7406 49.6724 42.7406 49.0235 42.6931 48.4221H43.7218L43.7693 49.6883H43.8168C44.1175 48.8178 44.8139 48.2797 45.6052 48.2797C45.7318 48.2797 45.8268 48.2797 45.9375 48.3272V49.435C45.8109 49.4034 45.7001 49.3876 45.5419 49.3876C44.7189 49.3876 44.1333 50.0206 43.9751 50.8911C43.9434 51.0493 43.9276 51.2393 43.9276 51.445V54.8794H42.7722V50.4479L42.7406 50.4321Z" fill="#F9F5F9"/>
<path d="M57.7763 46.8715H55.0383V45.8903H61.6854V46.8715H58.9474V54.8639H57.7763V46.8715Z" fill="#F9F5F9"/>
<path d="M65.6734 51.8569C65.705 53.4395 66.7179 54.0884 67.8891 54.0884C68.7279 54.0884 69.2344 53.946 69.6775 53.7561L69.8833 54.5949C69.4718 54.7848 68.7596 54.9905 67.7467 54.9905C65.7684 54.9905 64.5814 53.6928 64.5814 51.7461C64.5814 49.7994 65.7209 48.2642 67.6042 48.2642C69.7092 48.2642 70.2631 50.1159 70.2631 51.3029C70.2631 51.5403 70.2314 51.7303 70.2314 51.841H65.705L65.6734 51.8569ZM69.1078 51.0181C69.1078 50.2742 68.8071 49.1189 67.4776 49.1189C66.2906 49.1189 65.7684 50.2109 65.6734 51.0181H69.1078Z" fill="#F9F5F9"/>
<path d="M79.6171 54.6273C79.3164 54.7856 78.6358 55.0072 77.7654 55.0072C75.8187 55.0072 74.5526 53.6936 74.5526 51.7152C74.5526 49.7369 75.9136 48.2967 78.0186 48.2967C78.7149 48.2967 79.3164 48.4708 79.6487 48.6291L79.3797 49.5312C79.0948 49.3729 78.6675 49.2305 78.0186 49.2305C76.5467 49.2305 75.7396 50.3225 75.7396 51.6678C75.7396 53.1555 76.705 54.0734 77.9711 54.0734C78.6358 54.0734 79.079 53.8993 79.4113 53.7569L79.6171 54.6432V54.6273Z" fill="#F9F5F9"/>
<path d="M84.3174 45.4158H85.4886V49.4357H85.5203C85.7102 49.1034 85.995 48.8027 86.3591 48.6127C86.7072 48.407 87.1187 48.2804 87.5619 48.2804C88.4323 48.2804 89.8092 48.8185 89.8092 51.0342V54.8642H88.6381V51.1608C88.6381 50.1163 88.2582 49.2458 87.1504 49.2458C86.3907 49.2458 85.7893 49.7839 85.5836 50.417C85.5202 50.5752 85.5044 50.7493 85.5044 50.9709V54.8642H84.3333V45.4158H84.3174Z" fill="#F9F5F9"/>
<path d="M95.0479 50.1634C95.0479 49.4987 95.0478 48.9448 95.0004 48.4225H96.0449L96.1082 49.4829H96.1399C96.4564 48.8656 97.2003 48.2642 98.2765 48.2642C99.1628 48.2642 100.555 48.8023 100.555 51.0022V54.8481H99.3843V51.1288C99.3843 50.0843 99.0045 49.2297 97.8966 49.2297C97.1211 49.2297 96.5197 49.7678 96.3298 50.4325C96.2823 50.5749 96.2507 50.7807 96.2507 50.9706V54.8481H95.0795V50.1476L95.0479 50.1634Z" fill="#F9F5F9"/>
<path d="M111.587 51.5874C111.587 53.9773 109.941 55.006 108.374 55.006C106.633 55.006 105.288 53.724 105.288 51.6982C105.288 49.5458 106.696 48.2797 108.485 48.2797C110.273 48.2797 111.587 49.625 111.587 51.5874ZM106.475 51.6508C106.475 53.0593 107.282 54.1197 108.437 54.1197C109.592 54.1197 110.4 53.0751 110.4 51.6191C110.4 50.5271 109.862 49.1502 108.469 49.1502C107.076 49.1502 106.49 50.4321 106.49 51.6508" fill="#F9F5F9"/>
<path d="M117.569 45.4158H116.398V54.8642H117.569V45.4158Z" fill="#F9F5F9"/>
<path d="M128.695 51.5874C128.695 53.9773 127.049 55.006 125.482 55.006C123.742 55.006 122.396 53.724 122.396 51.6982C122.396 49.5458 123.805 48.2797 125.593 48.2797C127.382 48.2797 128.695 49.625 128.695 51.5874ZM123.599 51.6508C123.599 53.0593 124.406 54.1197 125.562 54.1197C126.717 54.1197 127.524 53.0751 127.524 51.6191C127.524 50.5271 126.986 49.1502 125.593 49.1502C124.2 49.1502 123.615 50.4321 123.615 51.6508" fill="#F9F5F9"/>
<path d="M139.062 48.4221C139.03 48.8811 139.014 49.4034 139.014 50.1947V53.9298C139.014 55.4016 138.713 56.3196 138.096 56.8735C137.463 57.4591 136.561 57.649 135.754 57.649C134.947 57.649 134.124 57.4591 133.617 57.1109L133.918 56.2246C134.345 56.4937 135.01 56.7311 135.801 56.7311C137.004 56.7311 137.875 56.098 137.875 54.4837V53.7715H137.843C137.479 54.3729 136.798 54.8477 135.785 54.8477C134.187 54.8477 133.047 53.4866 133.047 51.6982C133.047 49.5142 134.472 48.2797 135.944 48.2797C137.067 48.2797 137.669 48.8653 137.954 49.4034H137.985L138.033 48.438H139.062V48.4221ZM137.859 50.9544C137.859 50.7486 137.859 50.5745 137.795 50.4163C137.59 49.7357 137.004 49.1818 136.165 49.1818C135.042 49.1818 134.25 50.1314 134.25 51.6191C134.25 52.8852 134.883 53.9298 136.149 53.9298C136.862 53.9298 137.526 53.4708 137.78 52.727C137.843 52.5212 137.875 52.2996 137.875 52.0939V50.9386L137.859 50.9544Z" fill="#F9F5F9"/>
<path d="M144.711 48.4234L146.12 52.2376C146.262 52.665 146.421 53.1714 146.531 53.5512H146.563C146.69 53.1714 146.816 52.6808 146.975 52.206L148.257 48.4234H149.491L147.734 53.0131C146.895 55.2289 146.326 56.3525 145.519 57.0489C144.949 57.5554 144.379 57.7611 144.078 57.8086L143.778 56.8273C144.078 56.7324 144.458 56.5425 144.806 56.2576C145.123 56.0044 145.519 55.5454 145.788 54.9598C145.835 54.8332 145.883 54.7541 145.883 54.6749C145.883 54.5958 145.851 54.5167 145.803 54.3742L143.414 48.4393H144.696L144.711 48.4234Z" fill="#F9F5F9"/>
</svg>
