<svg width="172" height="41" viewBox="0 0 172 41" fill="none" xmlns="http://www.w3.org/2000/svg">
<g clip-path="url(#clip0_6022_3593)">
<path d="M50.0859 28.5696H62.3958V25.0574H54.4611V11.8281H50.0859V28.5696Z" fill="#3C3C3C"/>
<path d="M69.6896 26.2285C67.9346 26.2285 67.02 24.7768 67.02 22.5993C67.02 20.4217 67.9346 18.9466 69.6896 18.9466C71.4446 18.9466 72.3839 20.4217 72.3839 22.5993C72.3839 24.7768 71.4446 26.2285 69.6896 26.2285ZM69.7143 28.9446C73.7928 28.9446 76.4625 26.2051 76.4625 22.5993C76.4625 18.9934 73.7928 16.2539 69.7143 16.2539C65.6604 16.2539 62.9414 18.9934 62.9414 22.5993C62.9414 26.2051 65.6604 28.9446 69.7143 28.9446Z" fill="#3C3C3C"/>
<path d="M83.5219 32.7144C85.4005 32.7144 87.0566 32.3163 88.169 31.3797C89.1824 30.5134 89.8498 29.2022 89.8498 27.3992V16.5817H85.9937V17.8695H85.9443C85.2027 16.8627 84.0657 16.2305 82.3848 16.2305C79.2455 16.2305 77.0703 18.7124 77.0703 22.2246C77.0703 25.9007 79.7152 27.9144 82.5578 27.9144C84.0904 27.9144 85.0544 27.329 85.796 26.5329H85.8948V27.7271C85.8948 29.1788 85.178 30.0217 83.4724 30.0217C82.1376 30.0217 81.4702 29.4832 81.2477 28.851H77.3422C77.7377 31.3563 80.0365 32.7144 83.5219 32.7144ZM83.4971 25.0812C81.9893 25.0812 81.0006 23.9105 81.0006 22.1075C81.0006 20.2812 81.9893 19.1105 83.4971 19.1105C85.178 19.1105 86.0679 20.4685 86.0679 22.0841C86.0679 23.77 85.2522 25.0812 83.4971 25.0812Z" fill="#3C3C3C"/>
<path d="M97.7794 26.2285C96.0244 26.2285 95.1098 24.7768 95.1098 22.5993C95.1098 20.4217 96.0244 18.9466 97.7794 18.9466C99.5344 18.9466 100.474 20.4217 100.474 22.5993C100.474 24.7768 99.5344 26.2285 97.7794 26.2285ZM97.8041 28.9446C101.883 28.9446 104.553 26.2051 104.553 22.5993C104.553 18.9934 101.883 16.2539 97.8041 16.2539C93.7503 16.2539 91.0312 18.9934 91.0312 22.5993C91.0312 26.2051 93.7503 28.9446 97.8041 28.9446Z" fill="#3C3C3C"/>
<path d="M105.727 28.5696H109.756V16.5813H105.727V28.5696ZM105.727 14.9189H109.756V11.8281H105.727V14.9189Z" fill="#3C3C3C"/>
<path d="M111.504 32.5271H115.533V27.329H115.582C116.373 28.3358 117.535 28.9446 119.167 28.9446C122.479 28.9446 124.679 26.4627 124.679 22.5758C124.679 18.97 122.627 16.2305 119.266 16.2305C117.535 16.2305 116.299 16.9563 115.434 18.0334H115.36V16.5817H111.504V32.5271ZM118.128 25.9944C116.398 25.9944 115.409 24.6597 115.409 22.7163C115.409 20.7729 116.299 19.2978 118.054 19.2978C119.785 19.2978 120.6 20.6558 120.6 22.7163C120.6 24.7534 119.661 25.9944 118.128 25.9944Z" fill="#3C3C3C"/>
<path d="M131.241 28.9446C134.553 28.9446 137 27.5866 137 24.9641C137 21.8968 134.38 21.3583 132.155 21.0071C130.549 20.7261 129.115 20.609 129.115 19.7661C129.115 19.0168 129.881 18.6656 130.87 18.6656C131.982 18.6656 132.749 18.9934 132.897 20.0705H136.605C136.407 17.7056 134.479 16.2305 130.895 16.2305C127.904 16.2305 125.432 17.5417 125.432 20.0705C125.432 22.8802 127.78 23.4422 129.98 23.7934C131.661 24.0744 133.194 24.1914 133.194 25.2685C133.194 26.0412 132.427 26.4627 131.216 26.4627C129.881 26.4627 129.041 25.8773 128.893 24.6832H125.086C125.21 27.329 127.533 28.9446 131.241 28.9446Z" fill="#3C3C3C"/>
<path d="M142.473 28.9211C144.228 28.9211 145.34 28.2654 146.255 27.0947H146.329V28.5698H150.185V16.5815H146.156V23.2781C146.156 24.7064 145.315 25.6898 143.931 25.6898C142.646 25.6898 142.028 24.964 142.028 23.6528V16.5815H138.023V24.4489C138.023 27.1181 139.556 28.9211 142.473 28.9211Z" fill="#3C3C3C"/>
<path d="M151.938 28.57H155.967V21.85C155.967 20.4217 156.708 19.4149 157.969 19.4149C159.18 19.4149 159.749 20.1641 159.749 21.4519V28.57H163.778V21.85C163.778 20.4217 164.495 19.4149 165.78 19.4149C166.991 19.4149 167.56 20.1641 167.56 21.4519V28.57H171.589V20.7729C171.589 18.0802 170.155 16.2305 167.288 16.2305C165.656 16.2305 164.297 16.8861 163.308 18.3378H163.259C162.616 17.05 161.355 16.2305 159.699 16.2305C157.87 16.2305 156.659 17.05 155.868 18.291H155.794V16.5817H151.938V28.57Z" fill="#3C3C3C"/>
<path fill-rule="evenodd" clip-rule="evenodd" d="M8.91427 4.27525C7.44077 5.25121 6.10834 6.40511 4.95167 7.70406C9.67837 7.28838 15.6835 7.96713 22.6553 11.2692C30.1004 14.7953 36.0954 14.9145 40.2677 14.1521C39.8891 13.0664 39.4125 12.0229 38.848 11.0309C34.0718 11.508 27.9488 10.8764 20.813 7.49682C16.2817 5.35067 12.2874 4.46661 8.91427 4.27525ZM36.058 7.26918C32.2862 3.27733 26.805 0.765137 20.7042 0.765137C18.9126 0.765137 17.1743 0.981826 15.5171 1.38902C17.7616 1.96912 20.1459 2.81781 22.6553 4.00637C27.8798 6.48077 32.3903 7.27748 36.058 7.26918ZM41.1598 17.9633C36.1192 18.9061 29.1588 18.7124 20.813 14.7596C13.0106 11.0642 6.80052 11.1108 2.61224 11.9924C2.39606 12.0379 2.18496 12.0857 1.97896 12.1355C1.43061 13.2651 0.9929 14.453 0.678838 15.6866C1.01427 15.6017 1.36089 15.521 1.71852 15.4457C6.79964 14.3761 13.9788 14.4226 22.6553 18.532C30.4579 22.2275 36.6679 22.1809 40.8562 21.2993C40.9997 21.2691 41.1411 21.2379 41.2802 21.2057C41.2954 20.8981 41.303 20.5885 41.303 20.2773C41.303 19.4944 41.2544 18.7222 41.1598 17.9633ZM40.6076 25.3235C35.616 26.1501 28.8583 25.8328 20.813 22.0225C13.0106 18.3271 6.80052 18.3736 2.61224 19.2553C1.68256 19.4509 0.846242 19.6892 0.108486 19.9408C0.106475 20.0527 0.105469 20.1649 0.105469 20.2773C0.105469 31.0536 9.32785 39.7895 20.7042 39.7895C30.2385 39.7895 38.2599 33.6538 40.6076 25.3235Z" fill="#3C3C3C"/>
</g>
<defs>
<clipPath id="clip0_6022_3593">
<rect width="172" height="40" fill="white" transform="translate(0 0.478516)"/>
</clipPath>
</defs>
</svg>
