<svg width="172" height="41" viewBox="0 0 172 41" fill="none" xmlns="http://www.w3.org/2000/svg">
<g clip-path="url(#clip0_6022_3596)">
<path d="M52.4688 27.9304H64.5614V24.4182H56.7667V11.189H52.4688V27.9304Z" fill="#3C3C3C"/>
<path d="M71.7267 25.5889C70.0027 25.5889 69.1042 24.1372 69.1042 21.9596C69.1042 19.7821 70.0027 18.3069 71.7267 18.3069C73.4508 18.3069 74.3735 19.7821 74.3735 21.9596C74.3735 24.1372 73.4508 25.5889 71.7267 25.5889ZM71.751 28.305C75.7576 28.305 78.3801 25.5655 78.3801 21.9596C78.3801 18.3538 75.7576 15.6143 71.751 15.6143C67.7687 15.6143 65.0977 18.3538 65.0977 21.9596C65.0977 25.5655 67.7687 28.305 71.751 28.305Z" fill="#3C3C3C"/>
<path d="M85.3143 32.0747C87.1597 32.0747 88.7866 31.6767 89.8793 30.7401C90.8749 29.8737 91.5305 28.5625 91.5305 26.7596V15.942H87.7425V17.2298H87.6939C86.9655 16.223 85.8485 15.5908 84.1973 15.5908C81.1134 15.5908 78.9766 18.0728 78.9766 21.585C78.9766 25.2611 81.5748 27.2747 84.3672 27.2747C85.8728 27.2747 86.8198 26.6894 87.5482 25.8933H87.6454V27.0874C87.6454 28.5391 86.9412 29.382 85.2657 29.382C83.9544 29.382 83.2988 28.8435 83.0803 28.2113H79.2437C79.6322 30.7167 81.8904 32.0747 85.3143 32.0747ZM85.29 24.4416C83.8087 24.4416 82.8375 23.2708 82.8375 21.4679C82.8375 19.6416 83.8087 18.4708 85.29 18.4708C86.9412 18.4708 87.8153 19.8289 87.8153 21.4445C87.8153 23.1303 87.014 24.4416 85.29 24.4416Z" fill="#3C3C3C"/>
<path d="M99.3205 25.5889C97.5964 25.5889 96.698 24.1372 96.698 21.9596C96.698 19.7821 97.5964 18.3069 99.3205 18.3069C101.045 18.3069 101.967 19.7821 101.967 21.9596C101.967 24.1372 101.045 25.5889 99.3205 25.5889ZM99.3448 28.305C103.351 28.305 105.974 25.5655 105.974 21.9596C105.974 18.3538 103.351 15.6143 99.3448 15.6143C95.3625 15.6143 92.6914 18.3538 92.6914 21.9596C92.6914 25.5655 95.3625 28.305 99.3448 28.305Z" fill="#3C3C3C"/>
<path d="M107.129 27.9304H111.087V15.9421H107.129V27.9304ZM107.129 14.2797H111.087V11.189H107.129V14.2797Z" fill="#3C3C3C"/>
<path d="M112.805 31.8874H116.763V26.6894H116.811C117.588 27.6962 118.73 28.305 120.332 28.305C123.586 28.305 125.747 25.823 125.747 21.9362C125.747 18.3303 123.732 15.5908 120.429 15.5908C118.73 15.5908 117.515 16.3167 116.666 17.3937H116.593V15.942H112.805V31.8874ZM119.312 25.3547C117.613 25.3547 116.641 24.0201 116.641 22.0767C116.641 20.1333 117.515 18.6581 119.24 18.6581C120.939 18.6581 121.741 20.0162 121.741 22.0767C121.741 24.1137 120.818 25.3547 119.312 25.3547Z" fill="#3C3C3C"/>
<path d="M132.191 28.305C135.445 28.305 137.849 26.9469 137.849 24.3245C137.849 21.2572 135.275 20.7186 133.089 20.3674C131.511 20.0864 130.103 19.9694 130.103 19.1264C130.103 18.3772 130.855 18.0259 131.827 18.0259C132.919 18.0259 133.672 18.3537 133.818 19.4308H137.46C137.266 17.0659 135.372 15.5908 131.851 15.5908C128.913 15.5908 126.484 16.902 126.484 19.4308C126.484 22.2406 128.791 22.8025 130.952 23.1537C132.604 23.4347 134.109 23.5518 134.109 24.6289C134.109 25.4016 133.356 25.823 132.167 25.823C130.855 25.823 130.03 25.2376 129.884 24.0435H126.145C126.266 26.6894 128.548 28.305 132.191 28.305Z" fill="#3C3C3C"/>
<path d="M143.226 28.2814C144.95 28.2814 146.043 27.6258 146.942 26.4551H147.014V27.9302H150.802V15.9419H146.844V22.6385C146.844 24.0668 146.019 25.0502 144.659 25.0502C143.396 25.0502 142.789 24.3243 142.789 23.0131V15.9419H138.855V23.8092C138.855 26.4785 140.361 28.2814 143.226 28.2814Z" fill="#3C3C3C"/>
<path d="M152.523 27.9303H156.481V21.2103C156.481 19.782 157.21 18.7752 158.448 18.7752C159.638 18.7752 160.197 19.5245 160.197 20.8123V27.9303H164.155V21.2103C164.155 19.782 164.859 18.7752 166.122 18.7752C167.311 18.7752 167.87 19.5245 167.87 20.8123V27.9303H171.828V20.1333C171.828 17.4406 170.42 15.5908 167.603 15.5908C166 15.5908 164.665 16.2464 163.693 17.6981H163.645C163.013 16.4103 161.775 15.5908 160.148 15.5908C158.351 15.5908 157.161 16.4103 156.384 17.6513H156.311V15.942H152.523V27.9303Z" fill="#3C3C3C"/>
<path fill-rule="evenodd" clip-rule="evenodd" d="M20.9267 39.6376C32.1024 39.6376 41.162 30.9017 41.162 20.1254C41.162 9.34919 32.1024 0.613281 20.9267 0.613281C9.75104 0.613281 0.691406 9.34919 0.691406 20.1254C0.691406 30.9017 9.75104 39.6376 20.9267 39.6376ZM27.2394 9.70288C27.5467 8.6504 26.4875 8.02804 25.5201 8.6926L12.0162 17.969C10.9671 18.6896 11.1321 20.1254 12.2641 20.1254H15.82V20.0989H22.7504L17.1035 22.0202L14.614 30.5481C14.3067 31.6006 15.3659 32.2229 16.3333 31.5583L29.8372 22.282C30.8863 21.5613 30.7212 20.1254 29.5893 20.1254H24.1968L27.2394 9.70288Z" fill="#3C3C3C"/>
</g>
<defs>
<clipPath id="clip0_6022_3596">
<rect width="172" height="40" fill="white" transform="translate(0 0.478516)"/>
</clipPath>
</defs>
</svg>
