<svg width="172" height="41" viewBox="0 0 172 41" fill="none" xmlns="http://www.w3.org/2000/svg">
<g clip-path="url(#clip0_6022_3595)">
<path d="M96.5352 30.0021H100.214V12.4135H96.5352V30.0021ZM96.5352 9.67065H100.214V5.48779H96.5352V9.67065Z" fill="#3C3C3C"/>
<path d="M102.586 35.7622H106.265V28.0136H106.319C107.103 29.5222 108.375 30.5165 110.322 30.5165C113.893 30.5165 116.328 26.9165 116.328 21.2251C116.328 15.7393 113.974 11.9336 110.295 11.9336C108.402 11.9336 107.103 13.0651 106.211 14.6079H106.129V12.4136H102.586V35.7622ZM109.538 26.6422C107.347 26.6422 106.184 24.5508 106.184 21.3622C106.184 18.2079 107.103 15.7051 109.403 15.7051C111.675 15.7051 112.594 18.0365 112.594 21.3622C112.594 24.6879 111.404 26.6422 109.538 26.6422Z" fill="#3C3C3C"/>
<path d="M123.668 30.5165C127.13 30.5165 129.511 28.3908 129.511 24.8593C129.511 20.7451 126.941 19.9222 124.614 19.3051C122.64 18.7908 120.8 18.6536 120.8 17.1451C120.8 15.8765 121.747 15.1908 123.181 15.1908C124.75 15.1908 125.697 15.8765 125.859 17.7622H129.186C128.916 14.2308 126.887 11.9336 123.235 11.9336C120.07 11.9336 117.581 13.7508 117.581 17.5565C117.581 21.3965 120.016 22.2536 122.505 22.8708C124.398 23.3508 126.156 23.5222 126.156 25.2022C126.156 26.4365 125.237 27.2251 123.614 27.2251C121.963 27.2251 120.827 26.3336 120.584 24.3108H117.176C117.392 28.0479 119.637 30.5165 123.668 30.5165Z" fill="#3C3C3C"/>
<path d="M143.479 30.0022V12.4136H139.8V22.5622C139.8 24.8936 138.745 26.5393 137.014 26.5393C135.445 26.5393 134.715 25.4079 134.715 23.3508V12.4136H131.062V24.1393C131.062 27.9793 132.794 30.4822 135.878 30.4822C137.826 30.4822 138.907 29.5565 139.854 27.9451H139.935V30.0022H143.479Z" fill="#3C3C3C"/>
<path d="M145.859 30.0022H149.538V19.7851C149.538 17.4536 150.54 15.9451 152.028 15.9451C153.38 15.9451 154.164 16.9736 154.164 18.9622V30.0022H157.843V19.7851C157.843 17.4536 158.79 15.9451 160.332 15.9451C161.685 15.9451 162.469 16.9736 162.469 18.9622V30.0022H166.148V18.1736C166.148 14.3336 164.498 11.9336 161.576 11.9336C159.818 11.9336 158.357 13.0993 157.41 15.0193H157.357C156.68 13.1679 155.274 11.9336 153.515 11.9336C151.595 11.9336 150.242 13.1679 149.485 14.7793H149.404V12.4136H145.859V30.0022Z" fill="#3C3C3C"/>
<path d="M0.648438 30.0021H4.32738V5.48779H0.648438V30.0021Z" fill="#3C3C3C"/>
<path d="M13.324 30.5165C17.6251 30.5165 20.5736 26.4708 20.5736 21.2251C20.5736 15.9793 17.6251 11.9336 13.324 11.9336C9.02277 11.9336 6.07422 15.9793 6.07422 21.2251C6.07422 26.4708 9.02277 30.5165 13.324 30.5165ZM13.324 26.9508C11.0517 26.9508 9.80727 24.6536 9.80727 21.2251C9.80727 17.7965 11.0517 15.4651 13.324 15.4651C15.5692 15.4651 16.8406 17.7965 16.8406 21.2251C16.8406 24.6536 15.5692 26.9508 13.324 26.9508Z" fill="#3C3C3C"/>
<path d="M28.3992 36.0022C30.4551 36.0022 32.2405 35.3851 33.4036 34.0136C34.4316 32.8136 35.0538 31.1336 35.0538 28.6651V12.4136H31.5101V14.2651H31.456C30.6174 12.7908 29.346 11.9336 27.6147 11.9336C24.0981 11.9336 21.6094 15.2936 21.6094 20.5393C21.6094 25.8536 24.6391 28.9393 27.7229 28.9393C29.4812 28.9393 30.5363 28.0479 31.3477 26.8822H31.4289V28.8022C31.4289 31.2022 30.428 32.4708 28.3451 32.4708C26.6408 32.4708 25.8564 31.6136 25.5588 30.5165H21.9069C22.2856 33.9451 24.612 36.0022 28.3992 36.0022ZM28.3451 25.2022C26.4515 25.2022 25.2072 23.4536 25.2072 20.4708C25.2072 17.5222 26.4515 15.6708 28.318 15.6708C30.5363 15.6708 31.6183 17.8651 31.6183 20.4365C31.6183 23.0422 30.6715 25.2022 28.3451 25.2022Z" fill="#3C3C3C"/>
<path d="M43.9958 30.5165C48.2969 30.5165 51.2455 26.4708 51.2455 21.2251C51.2455 15.9793 48.2969 11.9336 43.9958 11.9336C39.6947 11.9336 36.7461 15.9793 36.7461 21.2251C36.7461 26.4708 39.6947 30.5165 43.9958 30.5165ZM43.9958 26.9508C41.7235 26.9508 40.4792 24.6536 40.4792 21.2251C40.4792 17.7965 41.7235 15.4651 43.9958 15.4651C46.241 15.4651 47.5125 17.7965 47.5125 21.2251C47.5125 24.6536 46.241 26.9508 43.9958 26.9508Z" fill="#3C3C3C"/>
<path d="M167.484 9.52623C167.484 8.73725 167.989 8.09766 168.612 8.09766H170.866C171.489 8.09766 171.993 8.73725 171.993 9.52623C171.993 10.3152 171.489 10.9548 170.866 10.9548H168.612C167.989 10.9548 167.484 10.3152 167.484 9.52623Z" fill="#3C3C3C"/>
<path fill-rule="evenodd" clip-rule="evenodd" d="M73.5572 0.478516C82.2718 0.478516 89.3372 9.43283 89.3372 20.4785C89.3372 31.5242 82.2718 40.4785 73.5572 40.4785C64.8422 40.4785 57.7773 31.5242 57.7773 20.4785C57.7773 9.43283 64.8422 0.478516 73.5572 0.478516ZM72.9868 1.97511C71.1866 2.29621 69.4724 4.1296 68.1418 7.19592C67.7558 8.08535 67.4075 9.06798 67.1041 10.129C68.9134 9.55269 70.9009 9.21294 72.9868 9.16039V1.97511ZM65.7704 10.6093C66.1478 9.1081 66.6095 7.72692 67.1423 6.49917C67.8019 4.97911 68.5847 3.66647 69.4667 2.65829C64.6705 4.42375 60.8901 9.21531 59.4971 15.2942C60.2926 14.1763 61.3282 13.1841 62.5275 12.3481C63.4963 11.6728 64.5859 11.0876 65.7704 10.6093ZM65.3914 12.2996C64.9367 14.5928 64.6687 17.1119 64.6272 19.7556H58.9581C59.2114 17.4739 60.6579 15.3013 63.0773 13.6149C63.779 13.1257 64.5543 12.6843 65.3914 12.2996ZM65.7682 19.7556C65.8153 16.8705 66.143 14.1619 66.6852 11.7687C68.5734 11.0815 70.7105 10.6661 72.9868 10.6064V13.7293C72.1376 16.4847 70.4056 18.6797 68.2316 19.7556H65.7682ZM64.6272 21.2014H58.9581C59.2114 23.4831 60.6579 25.6556 63.0773 27.3421C63.779 27.8313 64.5543 28.2727 65.3914 28.6574C64.9367 26.3642 64.6687 23.8451 64.6272 21.2014ZM66.6852 29.1883C66.143 26.7951 65.8153 24.0865 65.7682 21.2014H68.2316C70.4056 22.2773 72.1376 24.4723 72.9868 27.2277V30.3506C70.7105 30.2909 68.5734 29.8755 66.6852 29.1883ZM65.7704 30.3477C64.5859 29.8694 63.4963 29.2842 62.5275 28.6089C61.3282 27.7729 60.2926 26.7807 59.4971 25.6628C60.8901 31.7417 64.6705 36.5333 69.4667 38.2987C68.5847 37.2905 67.8019 35.9779 67.1423 34.4578C66.6095 33.2301 66.1478 31.8489 65.7704 30.3477ZM72.9868 38.9819C71.1866 38.6608 69.4724 36.8274 68.1418 33.7611C67.7558 32.8717 67.4075 31.889 67.1041 30.8281C68.9134 31.4043 70.9009 31.7441 72.9868 31.7966V38.9819ZM77.6475 38.2987C78.5295 37.2905 79.3123 35.9779 79.9719 34.4578C80.5045 33.2301 80.9668 31.8489 81.344 30.3477C82.5282 29.8694 83.6178 29.2842 84.5867 28.6089C85.786 27.7729 86.8219 26.7807 87.6172 25.6628C86.2239 31.7417 82.4438 36.5333 77.6475 38.2987ZM80.0106 30.8281C79.7068 31.889 79.3581 32.8717 78.9722 33.7611C77.6418 36.8274 75.9277 38.6608 74.1274 38.9819V31.7966C76.2133 31.7441 78.2008 31.4043 80.0106 30.8281ZM81.7227 28.6574C82.5598 28.2727 83.3354 27.8313 84.0368 27.3421C86.4566 25.6557 87.9028 23.4831 88.1561 21.2014H82.4872C82.4454 23.8451 82.1771 26.3642 81.7227 28.6574ZM81.3463 21.2014C81.299 24.0865 80.9715 26.7951 80.4287 29.1883C78.5408 29.8755 76.4038 30.2909 74.1274 30.3506V27.23C74.9764 24.4736 76.7088 22.2776 78.8834 21.2014H81.3463ZM82.4872 19.7556H88.1561C87.9028 17.4739 86.4566 15.3013 84.0368 13.6149C83.3354 13.1257 82.5598 12.6843 81.7227 12.2996C82.1771 14.5928 82.4454 17.1119 82.4872 19.7556ZM80.4287 11.7687C80.9715 14.1619 81.299 16.8705 81.3463 19.7556H78.8835C76.7088 18.6794 74.9764 16.4834 74.1274 13.727V10.6064C76.4038 10.6661 78.5408 11.0815 80.4287 11.7687ZM81.344 10.6093C82.5282 11.0876 83.6178 11.6728 84.5867 12.3481C85.786 13.1841 86.8219 14.1763 87.6172 15.2942C86.2239 9.21531 82.4438 4.42375 77.6475 2.65829C78.5295 3.66647 79.3123 4.97911 79.9719 6.49917C80.5045 7.72692 80.9668 9.1081 81.344 10.6093ZM74.1274 1.97511C75.9277 2.29621 77.6418 4.1296 78.9722 7.19592C79.3581 8.08536 79.7068 9.06798 80.0106 10.129C78.2008 9.55269 76.2133 9.21294 74.1274 9.16039V1.97511Z" fill="#3C3C3C"/>
</g>
<defs>
<clipPath id="clip0_6022_3595">
<rect width="172" height="40" fill="white" transform="translate(0 0.478516)"/>
</clipPath>
</defs>
</svg>
