<svg width="172" height="41" viewBox="0 0 172 41" fill="none" xmlns="http://www.w3.org/2000/svg">
<g clip-path="url(#clip0_6022_3594)">
<path fill-rule="evenodd" clip-rule="evenodd" d="M54.5938 3.14089C54.5938 1.78538 55.6466 0.686523 56.9456 0.686523H61.0427C61.9672 0.686523 62.8632 1.02086 63.578 1.63263L64.8243 2.69925L64.8555 2.72891C64.8843 2.71879 64.913 2.7089 64.9419 2.69925C67.1904 1.94765 69.9186 1.80471 72.703 1.80471C75.4875 1.80471 78.2156 1.94765 80.4642 2.69925C80.4931 2.7089 80.5218 2.71879 80.5506 2.72891L80.5817 2.69925L81.8281 1.63263C82.5429 1.02086 83.4389 0.686523 84.3633 0.686523H88.4605C89.7594 0.686523 90.8123 1.78538 90.8123 3.14089V4.65813C90.8123 5.83204 90.3385 6.95164 89.507 7.74227L88.5015 8.69836C88.0107 9.16511 87.4215 9.5048 86.7816 9.68999L86.5438 9.75883C87.4754 12.0788 87.9901 14.5586 87.9901 16.5646C87.9901 24.6343 83.2057 28.1194 78.99 31.1903C75.6701 33.6086 72.703 35.7699 72.703 39.711C72.703 35.7699 69.7359 33.6086 66.4161 31.1903C62.2004 28.1194 57.4159 24.6343 57.4159 16.5646C57.4159 14.5586 57.9306 12.0788 58.8623 9.75883L58.6245 9.68999C57.9846 9.5048 57.3954 9.16511 56.9046 8.69836L55.8991 7.74227C55.0676 6.95164 54.5938 5.83204 54.5938 4.65813V3.14089ZM75.7605 23.1619C75.7605 23.5474 75.5994 23.9171 75.3127 24.1898C75.0261 24.4624 74.6372 24.6155 74.2317 24.6155C73.8817 24.6155 73.544 24.5013 73.2738 24.2947C73.7337 25.5795 74.9108 26.797 76.7012 24.8391C78.2818 23.0199 76.6309 19.183 75.0226 16.9061C74.4866 16.1471 73.6065 15.7819 72.703 15.7819C71.7996 15.7819 70.9195 16.1471 70.3834 16.9061C68.7751 19.183 67.1243 23.0199 68.7049 24.8391C70.4952 26.797 71.6723 25.5795 72.1323 24.2947C71.8621 24.5013 71.5244 24.6155 71.1744 24.6155C70.7689 24.6155 70.38 24.4624 70.0934 24.1898C69.8067 23.9171 69.6456 23.5474 69.6456 23.1619H75.7605ZM66.8488 11.8037H62.5901L65.9464 14.6083C66.685 15.2254 67.7645 15.0281 68.2215 14.1925C68.7985 13.1375 68.0321 11.8037 66.8488 11.8037ZM78.5572 11.8037H82.816L79.4597 14.6083C78.7211 15.2254 77.6416 15.0281 77.1846 14.1925C76.6075 13.1375 77.3739 11.8037 78.5572 11.8037Z" fill="#3C3C3C"/>
<path d="M95.8867 28.3287H99.6596V13.3141H95.8867V28.3287ZM95.8867 10.9726H99.6596V7.40186H95.8867V10.9726Z" fill="#3C3C3C"/>
<path d="M102.09 33.2458H105.863V26.6311H105.918C106.723 27.9189 108.027 28.7677 110.024 28.7677C113.686 28.7677 116.183 25.6945 116.183 20.836C116.183 16.1531 113.769 12.9043 109.996 12.9043C108.054 12.9043 106.723 13.8701 105.807 15.1872H105.724V13.3141H102.09V33.2458ZM109.22 25.4604C106.972 25.4604 105.78 23.675 105.78 20.9531C105.78 18.2604 106.723 16.1238 109.081 16.1238C111.411 16.1238 112.354 18.1141 112.354 20.9531C112.354 23.7921 111.134 25.4604 109.22 25.4604Z" fill="#3C3C3C"/>
<path d="M123.709 28.7677C127.26 28.7677 129.701 26.9531 129.701 23.9384C129.701 20.4262 127.066 19.7238 124.68 19.197C122.655 18.758 120.768 18.6409 120.768 17.3531C120.768 16.2702 121.739 15.6848 123.209 15.6848C124.819 15.6848 125.789 16.2701 125.956 17.8799H129.368C129.091 14.8653 127.01 12.9043 123.265 12.9043C120.019 12.9043 117.467 14.4555 117.467 17.7043C117.467 20.9823 119.964 21.7141 122.516 22.2409C124.458 22.6506 126.261 22.797 126.261 24.2311C126.261 25.2848 125.318 25.958 123.653 25.958C121.961 25.958 120.796 25.197 120.546 23.4701H117.051C117.273 26.6604 119.575 28.7677 123.709 28.7677Z" fill="#3C3C3C"/>
<path d="M144.027 28.3286V13.314H140.254V21.9774C140.254 23.9676 139.172 25.3725 137.396 25.3725C135.787 25.3725 135.038 24.4066 135.038 22.6505V13.314H131.293V23.3237C131.293 26.6018 133.068 28.7384 136.231 28.7384C138.228 28.7384 139.338 27.9481 140.309 26.5725H140.392V28.3286H144.027Z" fill="#3C3C3C"/>
<path d="M146.465 28.3287H150.238V19.6067C150.238 17.6165 151.264 16.3287 152.79 16.3287C154.177 16.3287 154.982 17.2067 154.982 18.9043V28.3287H158.755V19.6067C158.755 17.6165 159.725 16.3287 161.307 16.3287C162.694 16.3287 163.498 17.2067 163.498 18.9043V28.3287H167.271V18.2311C167.271 14.9531 165.579 12.9043 162.583 12.9043C160.78 12.9043 159.282 13.8994 158.311 15.5384H158.255C157.562 13.958 156.119 12.9043 154.316 12.9043C152.346 12.9043 150.959 13.958 150.182 15.3336H150.099V13.3141H146.465V28.3287Z" fill="#3C3C3C"/>
<path d="M0.632812 28.3287H4.40571V7.40186H0.632812V28.3287Z" fill="#3C3C3C"/>
<path d="M13.6302 28.7677C18.0412 28.7677 21.065 25.3141 21.065 20.836C21.065 16.358 18.0412 12.9043 13.6302 12.9043C9.21918 12.9043 6.19531 16.358 6.19531 20.836C6.19531 25.3141 9.21918 28.7677 13.6302 28.7677ZM13.6302 25.7238C11.2999 25.7238 10.0237 23.7628 10.0237 20.836C10.0237 17.9092 11.2999 15.9189 13.6302 15.9189C15.9328 15.9189 17.2366 17.9092 17.2366 20.836C17.2366 23.7628 15.9328 25.7238 13.6302 25.7238Z" fill="#3C3C3C"/>
<path d="M29.0882 33.4506C31.1966 33.4506 33.0276 32.9238 34.2205 31.7531C35.2747 30.7287 35.9127 29.2945 35.9127 27.1872V13.3141H32.2785V14.8945H32.2231C31.3631 13.636 30.0592 12.9043 28.2837 12.9043C24.6773 12.9043 22.125 15.7726 22.125 20.2506C22.125 24.7872 25.2321 27.4214 28.3947 27.4214C30.1979 27.4214 31.2798 26.6604 32.1121 25.6653H32.1953V27.3043C32.1953 29.3531 31.1689 30.436 29.0327 30.436C27.285 30.436 26.4805 29.7043 26.1753 28.7677H22.4302C22.8185 31.6945 25.2044 33.4506 29.0882 33.4506ZM29.0327 24.2311C27.0908 24.2311 25.8147 22.7384 25.8147 20.1921C25.8147 17.675 27.0908 16.0945 29.005 16.0945C31.2798 16.0945 32.3895 17.9677 32.3895 20.1628C32.3895 22.3872 31.4185 24.2311 29.0327 24.2311Z" fill="#3C3C3C"/>
<path d="M45.0833 28.7677C49.4942 28.7677 52.5181 25.3141 52.5181 20.836C52.5181 16.358 49.4942 12.9043 45.0833 12.9043C40.6723 12.9043 37.6484 16.358 37.6484 20.836C37.6484 25.3141 40.6723 28.7677 45.0833 28.7677ZM45.0833 25.7238C42.753 25.7238 41.4768 23.7628 41.4768 20.836C41.4768 17.9092 42.753 15.9189 45.0833 15.9189C47.3859 15.9189 48.6897 17.9092 48.6897 20.836C48.6897 23.7628 47.3859 25.7238 45.0833 25.7238Z" fill="#3C3C3C"/>
<path d="M167.102 10.0359C167.102 9.3624 167.618 8.81641 168.257 8.81641H170.569C171.207 8.81641 171.725 9.3624 171.725 10.0359C171.725 10.7094 171.207 11.2554 170.569 11.2554H168.257C167.618 11.2554 167.102 10.7094 167.102 10.0359Z" fill="#3C3C3C"/>
</g>
<defs>
<clipPath id="clip0_6022_3594">
<rect width="172" height="40" fill="white" transform="translate(0 0.478516)"/>
</clipPath>
</defs>
</svg>
