<svg width="172" height="41" viewBox="0 0 172 41" fill="none" xmlns="http://www.w3.org/2000/svg">
<g clip-path="url(#clip0_6022_3590)">
<path d="M49.0352 29.4787H60.3879V26.246H52.497V11.1514H49.0352V29.4787Z" fill="#3C3C3C"/>
<path d="M67.2108 29.8602C68.5854 29.8602 69.7945 29.5547 70.8381 28.9438C71.8902 28.3244 72.709 27.4717 73.2945 26.3857C73.8884 25.2911 74.1854 24.0311 74.1854 22.6057C74.1854 21.1887 73.8926 19.9372 73.3072 18.8511C72.7217 17.7566 71.9029 16.8996 70.8508 16.2802C69.8072 15.6608 68.5939 15.3511 67.2108 15.3511C65.8532 15.3511 64.6526 15.6566 63.609 16.2675C62.5654 16.8784 61.7466 17.7311 61.1526 18.8257C60.5587 19.9117 60.2617 21.1717 60.2617 22.6057C60.2617 24.0226 60.5502 25.2784 61.1272 26.3729C61.7126 27.459 62.5272 28.3117 63.5708 28.9311C64.6145 29.5505 65.8278 29.8602 67.2108 29.8602ZM67.2108 26.6275C66.1332 26.6275 65.3145 26.2669 64.7545 25.5457C64.2029 24.816 63.9272 23.836 63.9272 22.6057C63.9272 21.4093 64.1902 20.442 64.7163 19.7038C65.2508 18.9572 66.0823 18.5838 67.2108 18.5838C68.3054 18.5838 69.1284 18.9487 69.6799 19.6784C70.2399 20.4081 70.5199 21.3838 70.5199 22.6057C70.5199 23.7851 70.2442 24.7523 69.6926 25.5075C69.1496 26.2541 68.3223 26.6275 67.2108 26.6275Z" fill="#3C3C3C"/>
<path d="M81.0334 29.8602C81.6783 29.8602 82.2722 29.7838 82.8153 29.6311C83.3668 29.4784 83.8674 29.262 84.3171 28.982V30.3693C84.3341 30.8784 84.2025 31.3026 83.9225 31.642C83.651 31.9899 83.2862 32.2487 82.828 32.4184C82.3698 32.5966 81.8819 32.6857 81.3644 32.6857C80.8807 32.6857 80.431 32.5796 80.0153 32.3675C79.608 32.1554 79.294 31.8457 79.0734 31.4384L75.8662 32.9911C76.3922 33.882 77.1431 34.599 78.1189 35.142C79.0947 35.6935 80.168 35.9693 81.3389 35.9693C82.3486 35.9693 83.2862 35.8335 84.1516 35.562C85.0171 35.299 85.7468 34.896 86.3407 34.3529C86.9431 33.8099 87.3547 33.1184 87.5753 32.2784C87.6516 31.9814 87.7025 31.6802 87.728 31.3747C87.7619 31.0778 87.7789 30.7596 87.7789 30.4202V15.7329H84.7498V16.4966C84.2831 16.1317 83.7528 15.8517 83.1589 15.6566C82.5734 15.4529 81.9244 15.3511 81.2116 15.3511C79.8965 15.3511 78.751 15.6651 77.7753 16.2929C76.7995 16.9208 76.0401 17.782 75.4971 18.8766C74.9625 19.9626 74.6953 21.2057 74.6953 22.6057C74.6953 23.9802 74.9583 25.2147 75.4844 26.3093C76.0189 27.4038 76.7613 28.2693 77.7116 28.9057C78.6619 29.542 79.7692 29.8602 81.0334 29.8602ZM81.5934 26.7802C80.8468 26.7802 80.2359 26.5935 79.7607 26.2202C79.2856 25.8469 78.9334 25.3463 78.7044 24.7184C78.4753 24.082 78.3607 23.3778 78.3607 22.6057C78.3607 21.842 78.4795 21.1463 78.7171 20.5184C78.9547 19.882 79.3195 19.3772 79.8116 19.0038C80.3122 18.622 80.9486 18.4311 81.7207 18.4311C82.8068 18.4311 83.5831 18.8172 84.0498 19.5893C84.5165 20.3529 84.7498 21.3584 84.7498 22.6057C84.7498 23.8529 84.5122 24.8626 84.0371 25.6347C83.5704 26.3984 82.7559 26.7802 81.5934 26.7802Z" fill="#3C3C3C"/>
<path d="M95.9999 29.8602C97.3745 29.8602 98.5836 29.5547 99.6272 28.9438C100.679 28.3244 101.498 27.4717 102.083 26.3857C102.677 25.2911 102.974 24.0311 102.974 22.6057C102.974 21.1887 102.682 19.9372 102.096 18.8511C101.511 17.7566 100.692 16.8996 99.6399 16.2802C98.5963 15.6608 97.3829 15.3511 95.9999 15.3511C94.6423 15.3511 93.4417 15.6566 92.3981 16.2675C91.3545 16.8784 90.5357 17.7311 89.9417 18.8257C89.3478 19.9117 89.0508 21.1717 89.0508 22.6057C89.0508 24.0226 89.3393 25.2784 89.9163 26.3729C90.5017 27.459 91.3163 28.3117 92.3599 28.9311C93.4036 29.5505 94.6169 29.8602 95.9999 29.8602ZM95.9999 26.6275C94.9223 26.6275 94.1035 26.2669 93.5435 25.5457C92.992 24.816 92.7163 23.836 92.7163 22.6057C92.7163 21.4093 92.9793 20.442 93.5054 19.7038C94.0399 18.9572 94.8714 18.5838 95.9999 18.5838C97.0945 18.5838 97.9175 18.9487 98.469 19.6784C99.029 20.4081 99.309 21.3838 99.309 22.6057C99.309 23.7851 99.0332 24.7523 98.4817 25.5075C97.9387 26.2541 97.1114 26.6275 95.9999 26.6275Z" fill="#3C3C3C"/>
<path d="M104.5 13.824H107.962V10.7695H104.5V13.824ZM104.5 29.4786H107.962V15.7331H104.5V29.4786Z" fill="#3C3C3C"/>
<path d="M110.227 35.5875H113.714V28.982C114.164 29.262 114.66 29.4784 115.203 29.6311C115.755 29.7838 116.353 29.8602 116.998 29.8602C118.262 29.8602 119.37 29.542 120.32 28.9057C121.27 28.2693 122.008 27.4038 122.534 26.3093C123.069 25.2147 123.336 23.9802 123.336 22.6057C123.336 21.2057 123.065 19.9626 122.522 18.8766C121.987 17.782 121.232 16.9208 120.256 16.2929C119.28 15.6651 118.135 15.3511 116.82 15.3511C116.107 15.3511 115.454 15.4529 114.86 15.6566C114.274 15.8517 113.748 16.1317 113.282 16.4966V15.7329H110.227V35.5875ZM116.438 26.7802C115.284 26.7802 114.47 26.3984 113.994 25.6347C113.519 24.8626 113.282 23.8529 113.282 22.6057C113.282 21.3584 113.515 20.3529 113.982 19.5893C114.457 18.8172 115.233 18.4311 116.311 18.4311C117.083 18.4311 117.715 18.622 118.207 19.0038C118.708 19.3772 119.077 19.882 119.314 20.5184C119.552 21.1463 119.671 21.842 119.671 22.6057C119.671 23.3778 119.556 24.082 119.327 24.7184C119.098 25.3463 118.746 25.8469 118.271 26.2202C117.796 26.5935 117.185 26.7802 116.438 26.7802Z" fill="#3C3C3C"/>
<path d="M129.608 29.8602C131.406 29.8602 132.815 29.4572 133.833 28.6511C134.851 27.845 135.36 26.7378 135.36 25.3293C135.36 24.2602 135.029 23.416 134.368 22.7966C133.714 22.1772 132.603 21.6638 131.033 21.2566C129.964 20.985 129.166 20.7644 128.64 20.5947C128.123 20.4251 127.779 20.2596 127.609 20.0984C127.448 19.9372 127.368 19.7378 127.368 19.5002C127.368 19.1014 127.558 18.796 127.94 18.5838C128.331 18.3717 128.844 18.2869 129.48 18.3293C130.829 18.4311 131.568 19.0081 131.695 20.0602L135.233 19.4238C135.055 18.1766 134.444 17.1881 133.4 16.4584C132.357 15.7202 131.025 15.3511 129.404 15.3511C127.741 15.3511 126.413 15.7414 125.42 16.522C124.428 17.3026 123.931 18.3547 123.931 19.6784C123.931 20.7305 124.275 21.562 124.962 22.1729C125.649 22.7754 126.833 23.2929 128.513 23.7257C129.506 23.9887 130.235 24.2008 130.702 24.362C131.177 24.5232 131.483 24.6887 131.618 24.8584C131.754 25.0196 131.822 25.236 131.822 25.5075C131.822 25.9402 131.652 26.2796 131.313 26.5257C130.974 26.7632 130.49 26.882 129.862 26.882C129.098 26.882 128.466 26.6996 127.966 26.3347C127.474 25.9699 127.155 25.4651 127.011 24.8202L123.473 25.3547C123.702 26.7887 124.347 27.9002 125.408 28.6893C126.477 29.4699 127.877 29.8602 129.608 29.8602Z" fill="#3C3C3C"/>
<path d="M141.742 29.8857C142.735 29.8857 143.6 29.7202 144.339 29.3893C145.077 29.0584 145.696 28.6172 146.197 28.0657V29.4784H149.251V15.7329H145.764V22.7075C145.764 23.556 145.666 24.2432 145.471 24.7693C145.285 25.2869 145.043 25.6814 144.746 25.9529C144.449 26.216 144.131 26.3941 143.791 26.4875C143.452 26.5808 143.134 26.6275 142.837 26.6275C142.099 26.6275 141.526 26.462 141.119 26.1311C140.72 25.8002 140.431 25.3887 140.253 24.8966C140.075 24.4044 139.969 23.9166 139.935 23.4329C139.901 22.9408 139.884 22.5378 139.884 22.2238V15.7329H136.371V23.4457C136.371 23.6747 136.388 24.0396 136.422 24.5402C136.456 25.0408 136.554 25.5966 136.715 26.2075C136.876 26.8099 137.143 27.3911 137.517 27.9511C137.899 28.5111 138.429 28.9735 139.108 29.3384C139.786 29.7032 140.665 29.8857 141.742 29.8857Z" fill="#3C3C3C"/>
<path d="M151.258 29.4787H154.745V21.155C154.745 20.366 154.961 19.7254 155.394 19.2332C155.835 18.7326 156.416 18.4823 157.138 18.4823C157.893 18.4823 158.483 18.7369 158.907 19.246C159.339 19.7466 159.556 20.4508 159.556 21.3587V29.4787H163.018V21.155C163.018 20.366 163.234 19.7254 163.667 19.2332C164.108 18.7326 164.689 18.4823 165.41 18.4823C166.166 18.4823 166.755 18.7369 167.179 19.246C167.612 19.7466 167.829 20.4508 167.829 21.3587V29.4787H171.29V20.4423C171.29 18.9405 170.887 17.7272 170.081 16.8023C169.284 15.869 168.1 15.4023 166.53 15.4023C165.648 15.4023 164.838 15.5932 164.099 15.975C163.361 16.3569 162.772 16.8787 162.33 17.5405C161.974 16.8957 161.465 16.3781 160.803 15.9878C160.141 15.5975 159.318 15.4023 158.334 15.4023C157.502 15.4023 156.739 15.5678 156.043 15.8987C155.347 16.2211 154.77 16.6666 154.312 17.235V15.7332H151.258V29.4787Z" fill="#3C3C3C"/>
<path d="M20 0.478516C8.9543 0.478516 0 9.43282 0 20.4785C11.0457 20.4785 20 11.5242 20 0.478516Z" fill="#3C3C3C"/>
<path d="M20 40.4785C31.0457 40.4785 40 31.5242 40 20.4785C28.9543 20.4785 20 29.4328 20 40.4785Z" fill="#3C3C3C"/>
<path d="M20 0.478516C31.0457 0.478516 40 9.43282 40 20.4785C28.9543 20.4785 20 11.5242 20 0.478516Z" fill="#3C3C3C"/>
<path d="M20 40.4785C8.9543 40.4785 -9.65645e-07 31.5242 0 20.4785C11.0457 20.4785 20 29.4328 20 40.4785Z" fill="#3C3C3C"/>
</g>
<defs>
<clipPath id="clip0_6022_3590">
<rect width="172" height="40" fill="white" transform="translate(0 0.478516)"/>
</clipPath>
</defs>
</svg>
