<svg width="172" height="41" viewBox="0 0 172 41" fill="none" xmlns="http://www.w3.org/2000/svg">
<g clip-path="url(#clip0_6022_3591)">
<path d="M57.2406 10.7622H53.2656V26.9255H64.2696V23.7584H57.2406V10.7622Z" fill="#3C3C3C"/>
<path d="M64.6484 21.4432C64.6484 24.8943 67.2177 27.1877 71.0957 27.1877C74.9495 27.1877 77.5187 24.8943 77.5187 21.4432C77.5187 17.9921 74.9495 15.6768 71.0957 15.6768C67.2177 15.6768 64.6484 17.9921 64.6484 21.4432ZM68.4053 21.4213C68.4053 19.7832 69.4718 18.6911 71.0957 18.6911C72.6954 18.6911 73.7619 19.7832 73.7619 21.4213C73.7619 23.0814 72.6954 24.1735 71.0957 24.1735C69.4718 24.1735 68.4053 23.0814 68.4053 21.4213Z" fill="#3C3C3C"/>
<path d="M78.1188 21.2686C78.1188 24.5667 80.4942 26.7946 83.8632 26.7946C85.4872 26.7946 86.8929 26.2704 87.5958 25.4186V26.9257C87.5958 28.4328 86.5536 29.4375 84.7115 29.4375C83.0633 29.4375 81.9241 28.7386 81.8514 27.4936H78.0703C78.4097 30.486 80.9789 32.4954 84.4933 32.4954C88.638 32.4954 91.2557 30.071 91.2557 26.2267V16.0046H87.8866L87.6928 17.1185C87.0141 16.223 85.584 15.6333 83.936 15.6333C80.5426 15.6333 78.1188 17.9267 78.1188 21.2686ZM81.8999 21.1812C81.8999 19.6085 83.0633 18.5601 84.5418 18.5601C86.2627 18.5601 87.5231 19.5867 87.5231 21.1812C87.5231 22.7757 86.2869 23.8678 84.566 23.8678C83.0876 23.8678 81.8999 22.7757 81.8999 21.1812Z" fill="#3C3C3C"/>
<path d="M92.3438 21.4432C92.3438 24.8943 94.913 27.1877 98.7911 27.1877C102.645 27.1877 105.214 24.8943 105.214 21.4432C105.214 17.9921 102.645 15.6768 98.7911 15.6768C94.913 15.6768 92.3438 17.9921 92.3438 21.4432ZM96.1007 21.4213C96.1007 19.7832 97.1671 18.6911 98.7911 18.6911C100.391 18.6911 101.457 19.7832 101.457 21.4213C101.457 23.0814 100.391 24.1735 98.7911 24.1735C97.1671 24.1735 96.1007 23.0814 96.1007 21.4213Z" fill="#3C3C3C"/>
<path d="M108.434 14.3009C109.597 14.3009 110.542 13.449 110.542 12.3788C110.542 11.3085 109.597 10.4785 108.434 10.4785C107.246 10.4785 106.301 11.3085 106.301 12.3788C106.301 13.449 107.246 14.3009 108.434 14.3009ZM106.543 26.9257H110.3V16.0046H106.543V26.9257Z" fill="#3C3C3C"/>
<path d="M112.484 32.168H116.169V25.8338C116.871 26.6638 118.471 27.2317 120.143 27.2317C123.754 27.2317 125.936 24.7417 125.839 21.2906C125.742 17.774 123.488 15.6553 120.119 15.6553C118.398 15.6553 116.774 16.3324 116.095 17.3372L115.901 16.0048H112.484V32.168ZM116.241 21.4653C116.241 19.8272 117.452 18.7351 119.198 18.7351C120.967 18.7351 122.082 19.849 122.082 21.4653C122.082 23.0817 120.967 24.1956 119.198 24.1956C117.452 24.1956 116.241 23.1035 116.241 21.4653Z" fill="#3C3C3C"/>
<path d="M126.238 23.4748C126.335 25.6809 128.275 27.2098 131.328 27.2098C134.261 27.2098 136.298 25.8119 136.298 23.5622C136.298 21.9459 135.231 20.8756 133.243 20.4387L131.086 19.9582C130.311 19.7835 129.826 19.6087 129.826 19.0408C129.826 18.4729 130.334 18.1016 131.086 18.1016C131.934 18.1016 132.491 18.604 132.468 19.3466H135.837C135.739 17.075 133.825 15.6553 131.159 15.6553C128.469 15.6553 126.457 17.0969 126.457 19.2811C126.457 20.7445 127.354 21.9459 129.753 22.5138L131.885 23.0161C132.516 23.169 132.782 23.4311 132.782 23.8024C132.782 24.3485 132.225 24.698 131.28 24.698C130.189 24.698 129.607 24.2393 129.607 23.4748H126.238Z" fill="#3C3C3C"/>
<path d="M142.011 27.2094C143.49 27.2094 144.968 26.5978 145.719 25.7023L145.962 26.9255H149.476V16.0044H145.744V21.6834C145.744 23.3215 145.211 24.217 143.49 24.217C142.156 24.217 141.284 23.671 141.284 21.6397V16.0044H137.551V22.8628C137.551 25.4621 139.151 27.2094 142.011 27.2094Z" fill="#3C3C3C"/>
<path d="M155.394 26.9257V20.9628C155.394 19.128 156.485 18.6038 157.551 18.6038C158.739 18.6038 159.514 19.2591 159.514 20.6133V26.9257H163.198V20.9628C163.198 19.1062 164.265 18.582 165.331 18.582C166.519 18.582 167.319 19.2372 167.319 20.6133V26.9257H170.955V19.7833C170.955 17.2933 169.5 15.6333 166.373 15.6333C164.629 15.6333 163.198 16.3977 162.568 17.5772C161.841 16.3977 160.581 15.6333 158.569 15.6333C157.236 15.6333 156 16.1793 155.273 17.053L155.128 16.0046H151.637V26.9257H155.394Z" fill="#3C3C3C"/>
<path d="M0 20.4785C0 11.0504 0 6.33638 3.25017 3.40745C6.50034 0.478516 11.7314 0.478516 22.1935 0.478516C32.6557 0.478516 37.8867 0.478516 41.137 3.40745C44.3871 6.33638 44.3871 11.0504 44.3871 20.4785C44.3871 29.9066 44.3871 34.6206 41.137 37.5496C37.8867 40.4785 32.6557 40.4785 22.1935 40.4785C11.7314 40.4785 6.50034 40.4785 3.25017 37.5496C0 34.6206 0 29.9066 0 20.4785Z" fill="#3C3C3C"/>
<path d="M26.6329 26.4785C27.2458 26.4785 27.7538 26.9306 27.6321 27.4719C27.4169 28.4279 26.8943 29.314 26.1175 30.014C25.077 30.9517 23.6658 31.4785 22.1942 31.4785C20.7227 31.4785 19.3115 30.9517 18.271 30.014C17.4942 29.314 16.9715 28.4279 16.7565 27.4719C16.6346 26.9306 17.1426 26.4785 17.7555 26.4785H26.6329Z" fill="#3C3C3C"/>
<path d="M28.9652 18.255C28.3732 18.3979 28.0106 18.956 28.3108 19.4375C28.6267 19.9443 29.0637 20.3866 29.5953 20.7299C30.43 21.2689 31.4463 21.5305 32.4711 21.4699C33.4958 21.4094 34.4655 21.0306 35.215 20.398C35.9646 19.7654 36.4474 18.9181 36.5814 18.0006C36.7155 17.0831 36.4924 16.1521 35.9501 15.3662C35.4078 14.5804 34.5799 13.9883 33.6075 13.6908C32.6351 13.3933 31.5783 13.4089 30.6173 13.7349C30.0052 13.9425 29.4561 14.2678 29.0053 14.6836C28.5771 15.0787 28.767 15.7024 29.2977 15.9785L29.8607 16.2714C30.7168 16.7169 30.548 17.8728 29.593 18.1034L28.9652 18.255Z" fill="#3C3C3C"/>
<path d="M15.4238 18.255C16.0158 18.3979 16.3783 18.956 16.0782 19.4375C15.7622 19.9443 15.3253 20.3866 14.7937 20.7299C13.959 21.2689 12.9427 21.5305 11.918 21.4699C10.8932 21.4094 9.92349 21.0306 9.17398 20.398C8.42447 19.7654 7.94155 18.9181 7.80751 18.0006C7.67348 17.0831 7.8966 16.1521 8.43889 15.3662C8.98116 14.5804 9.80905 13.9883 10.7815 13.6908C11.7539 13.3933 12.8107 13.4089 13.7718 13.7349C14.3838 13.9425 14.933 14.2678 15.3837 14.6836C15.812 15.0787 15.622 15.7024 15.0912 15.9785L14.5283 16.2714C13.6722 16.7169 13.8411 17.8728 14.7959 18.1034L15.4238 18.255Z" fill="#3C3C3C"/>
</g>
<defs>
<clipPath id="clip0_6022_3591">
<rect width="172" height="40" fill="white" transform="translate(0 0.478516)"/>
</clipPath>
</defs>
</svg>
