<svg width="172" height="41" viewBox="0 0 172 41" fill="none" xmlns="http://www.w3.org/2000/svg">
<g clip-path="url(#clip0_6022_3592)">
<path d="M51.8789 29.0867H63.9715V25.5745H56.1769V12.3452H51.8789V29.0867Z" fill="#3C3C3C"/>
<path d="M71.1369 26.7451C69.4129 26.7451 68.5144 25.2934 68.5144 23.1159C68.5144 20.9383 69.4129 19.4632 71.1369 19.4632C72.8609 19.4632 73.7837 20.9383 73.7837 23.1159C73.7837 25.2934 72.8609 26.7451 71.1369 26.7451ZM71.1612 29.4612C75.1678 29.4612 77.7903 26.7217 77.7903 23.1159C77.7903 19.51 75.1678 16.7705 71.1612 16.7705C67.1789 16.7705 64.5078 19.51 64.5078 23.1159C64.5078 26.7217 67.1789 29.4612 71.1612 29.4612Z" fill="#3C3C3C"/>
<path d="M84.7244 33.231C86.5699 33.231 88.1968 32.8329 89.2895 31.8963C90.2851 31.03 90.9407 29.7188 90.9407 27.9159V17.0983H87.1527V18.3861H87.1041C86.3756 17.3793 85.2586 16.7471 83.6074 16.7471C80.5236 16.7471 78.3867 19.229 78.3867 22.7412C78.3867 26.4173 80.9849 28.431 83.7774 28.431C85.2829 28.431 86.2299 27.8456 86.9584 27.0495H87.0555V28.2437C87.0555 29.6954 86.3513 30.5383 84.6759 30.5383C83.3646 30.5383 82.709 29.9998 82.4904 29.3676H78.6538C79.0423 31.8729 81.3006 33.231 84.7244 33.231ZM84.7001 25.5978C83.2189 25.5978 82.2476 24.4271 82.2476 22.6241C82.2476 20.7978 83.2189 19.6271 84.7001 19.6271C86.3513 19.6271 87.2255 20.9851 87.2255 22.6007C87.2255 24.2866 86.4242 25.5978 84.7001 25.5978Z" fill="#3C3C3C"/>
<path d="M98.7306 26.7451C97.0066 26.7451 96.1081 25.2934 96.1081 23.1159C96.1081 20.9383 97.0066 19.4632 98.7306 19.4632C100.455 19.4632 101.377 20.9383 101.377 23.1159C101.377 25.2934 100.455 26.7451 98.7306 26.7451ZM98.7549 29.4612C102.761 29.4612 105.384 26.7217 105.384 23.1159C105.384 19.51 102.761 16.7705 98.7549 16.7705C94.7726 16.7705 92.1016 19.51 92.1016 23.1159C92.1016 26.7217 94.7726 29.4612 98.7549 29.4612Z" fill="#3C3C3C"/>
<path d="M106.539 29.0867H110.497V17.0984H106.539V29.0867ZM106.539 15.4359H110.497V12.3452H106.539V15.4359Z" fill="#3C3C3C"/>
<path d="M112.215 33.0437H116.173V27.8456H116.221C116.998 28.8524 118.14 29.4612 119.742 29.4612C122.996 29.4612 125.157 26.9793 125.157 23.0924C125.157 19.4866 123.142 16.7471 119.84 16.7471C118.14 16.7471 116.926 17.4729 116.076 18.55H116.003V17.0983H112.215V33.0437ZM118.723 26.511C117.023 26.511 116.051 25.1763 116.051 23.2329C116.051 21.2895 116.926 19.8144 118.65 19.8144C120.349 19.8144 121.151 21.1724 121.151 23.2329C121.151 25.27 120.228 26.511 118.723 26.511Z" fill="#3C3C3C"/>
<path d="M131.601 29.4612C134.855 29.4612 137.259 28.1032 137.259 25.4807C137.259 22.4134 134.685 21.8749 132.499 21.5237C130.921 21.2427 129.513 21.1256 129.513 20.2827C129.513 19.5334 130.265 19.1822 131.237 19.1822C132.329 19.1822 133.082 19.51 133.228 20.5871H136.87C136.676 18.2222 134.782 16.7471 131.261 16.7471C128.323 16.7471 125.895 18.0583 125.895 20.5871C125.895 23.3968 128.201 23.9588 130.363 24.31C132.014 24.591 133.519 24.708 133.519 25.7851C133.519 26.5578 132.767 26.9793 131.577 26.9793C130.265 26.9793 129.44 26.3939 129.294 25.1998H125.555C125.676 27.8456 127.959 29.4612 131.601 29.4612Z" fill="#3C3C3C"/>
<path d="M142.636 29.4377C144.36 29.4377 145.453 28.782 146.352 27.6113H146.424V29.0864H150.213V17.0981H146.255V23.7947C146.255 25.223 145.429 26.2064 144.069 26.2064C142.806 26.2064 142.199 25.4806 142.199 24.1694V17.0981H138.266V24.9655C138.266 27.6347 139.771 29.4377 142.636 29.4377Z" fill="#3C3C3C"/>
<path d="M151.934 29.0866H155.892V22.3666C155.892 20.9383 156.62 19.9315 157.858 19.9315C159.048 19.9315 159.607 20.6807 159.607 21.9685V29.0866H163.565V22.3666C163.565 20.9383 164.269 19.9315 165.532 19.9315C166.722 19.9315 167.28 20.6807 167.28 21.9685V29.0866H171.238V21.2895C171.238 18.5968 169.83 16.7471 167.013 16.7471C165.41 16.7471 164.075 17.4027 163.103 18.8544H163.055C162.424 17.5666 161.185 16.7471 159.558 16.7471C157.761 16.7471 156.572 17.5666 155.794 18.8076H155.722V17.0983H151.934V29.0866Z" fill="#3C3C3C"/>
<path fill-rule="evenodd" clip-rule="evenodd" d="M20.3368 39.8183C31.5126 39.8183 40.5721 31.0824 40.5721 20.3061C40.5721 9.52985 31.5126 0.793945 20.3368 0.793945C9.1612 0.793945 0.101562 9.52985 0.101562 20.3061C0.101562 31.0824 9.1612 39.8183 20.3368 39.8183ZM23.4601 15.8696C25.185 14.2063 25.185 11.5096 23.4601 9.84629C21.7352 8.183 18.9386 8.183 17.2136 9.84629C15.4887 11.5096 15.4887 14.2063 17.2136 15.8696L20.3368 18.8812L23.4601 15.8696ZM24.9378 23.3178C26.6628 24.9811 29.4594 24.9811 31.1843 23.3178C32.9092 21.6545 32.9092 18.9578 31.1843 17.2945C29.4594 15.6313 26.6628 15.6313 24.9378 17.2945L21.8146 20.3062L24.9378 23.3178ZM23.4601 30.766C25.185 29.1027 25.185 26.406 23.4601 24.7427L20.3368 21.7311L17.2136 24.7427C15.4887 26.406 15.4887 29.1027 17.2136 30.766C18.9386 32.4293 21.7352 32.4293 23.4601 30.766ZM9.48935 23.3178C7.76445 21.6545 7.76445 18.9578 9.48935 17.2945C11.2143 15.6313 14.011 15.6313 15.7359 17.2945L18.8591 20.3062L15.7359 23.3178C14.011 24.9811 11.2143 24.9811 9.48935 23.3178Z" fill="#3C3C3C"/>
</g>
<defs>
<clipPath id="clip0_6022_3592">
<rect width="172" height="40" fill="white" transform="translate(0 0.478516)"/>
</clipPath>
</defs>
</svg>
